{"glyphs":{"0":{"ha":481,"x_min":49,"x_max":432,"o":"m 432 229 q 374 58 432 122 q 244 0 321 1 q 110 56 165 -1 q 49 229 49 119 l 49 828 q 108 999 49 936 q 240 1056 163 1056 q 371 999 318 1056 q 432 828 432 935 l 432 828 l 432 229 m 308 165 l 308 893 q 288 960 308 935 q 240 986 268 986 q 192 960 213 986 q 171 893 171 935 l 171 165 q 192 96 171 122 q 240 69 213 69 q 288 96 268 69 q 308 165 308 122 z "},"1":{"ha":299,"x_min":49,"x_max":278,"o":"m 278 0 l 49 0 l 49 72 q 107 139 107 81 l 107 904 l 49 904 l 49 996 q 150 1056 108 1007 l 218 1056 l 215 139 q 233 93 215 113 q 278 71 251 74 l 278 0 z "},"2":{"ha":425,"x_min":49,"x_max":371,"o":"m 371 774 q 304 578 369 683 q 197 396 210 426 q 158 160 158 299 q 185 173 158 146 q 211 200 211 200 q 244 194 222 200 q 278 189 265 188 q 314 279 314 192 l 314 325 l 371 325 l 371 131 q 300 -1 371 -1 q 244 22 276 -1 q 200 46 213 46 q 182 0 178 46 l 101 0 q 72 196 72 96 q 153 506 72 367 q 254 778 250 671 q 250 893 257 838 q 206 983 239 983 q 168 950 182 982 q 156 897 157 924 q 181 790 181 854 q 119 704 181 704 q 60 756 76 704 q 49 844 49 789 q 92 989 50 929 q 218 1056 139 1057 q 371 774 376 1054 z "},"3":{"ha":474,"x_min":50,"x_max":425,"o":"m 425 228 q 365 58 425 122 q 236 0 314 1 l 236 0 l 236 0 l 236 0 q 232 0 235 0 l 232 0 l 232 0 l 232 0 l 232 0 q 228 0 231 0 l 228 0 q 94 83 147 3 q 50 218 51 150 q 61 308 49 274 q 125 360 79 360 q 190 272 190 358 q 163 164 190 208 q 184 98 164 122 q 231 74 204 74 q 283 101 265 74 q 301 165 301 129 l 301 407 q 283 469 301 442 q 228 503 263 503 l 208 503 l 208 582 l 228 582 q 283 611 263 582 q 301 672 301 636 l 301 893 q 231 986 301 988 q 184 962 204 986 q 163 896 164 938 q 190 788 190 851 q 125 700 190 701 q 61 751 79 700 q 50 842 50 785 q 108 1003 51 944 q 235 1056 160 1057 q 365 999 313 1054 q 425 831 425 936 l 425 735 q 340 542 425 606 q 425 350 425 479 l 425 228 z "},"4":{"ha":406,"x_min":21,"x_max":385,"o":"m 385 318 l 326 319 l 328 139 q 372 71 328 75 l 372 0 l 167 0 l 167 72 q 207 139 207 78 l 207 319 l 21 319 l 22 424 l 204 1056 l 322 1056 l 326 440 l 383 440 l 385 318 m 207 440 l 207 786 l 106 440 l 207 440 z "},"5":{"ha":472,"x_min":49,"x_max":424,"o":"m 424 226 q 372 69 424 135 q 229 0 318 -1 q 100 72 154 1 q 49 217 50 139 q 60 307 49 272 q 124 357 78 357 q 189 271 189 356 q 161 163 189 207 q 183 97 163 121 q 229 74 203 74 q 283 103 264 72 q 300 165 300 128 l 300 457 q 279 538 300 510 q 229 565 258 565 q 172 524 192 565 l 88 542 l 118 1046 q 160 1051 138 1051 q 234 1042 185 1051 q 310 1032 283 1032 q 403 1056 357 1032 l 403 908 q 292 890 340 890 q 211 907 243 890 l 186 604 q 289 643 239 643 q 386 591 349 643 q 424 454 424 539 l 424 226 z "},"6":{"ha":482,"x_min":49,"x_max":433,"o":"m 433 229 q 375 58 433 122 q 246 0 322 1 q 110 56 167 -1 q 49 229 49 119 l 49 828 q 108 999 49 936 q 240 1056 163 1056 q 378 974 324 1056 q 424 838 422 907 q 411 749 424 782 q 347 697 393 697 q 283 783 283 697 q 310 892 283 847 l 310 892 q 289 958 308 933 q 243 982 269 982 q 194 961 214 982 q 172 893 172 936 l 172 607 q 279 646 225 646 q 389 593 344 646 q 433 456 433 540 l 433 229 m 310 165 l 310 458 q 289 542 310 511 q 240 568 269 568 q 192 538 211 567 q 172 457 172 508 l 172 165 q 193 96 172 122 q 240 69 214 69 q 289 96 268 69 q 310 165 310 122 z "},"7":{"ha":397,"x_min":21,"x_max":376,"o":"m 364 1056 q 376 969 376 1017 q 303 665 376 857 q 236 329 236 490 q 272 106 236 213 q 315 0 294 53 l 132 0 q 99 246 99 121 q 193 656 99 467 q 268 807 263 796 q 296 971 301 892 q 275 946 294 986 q 231 886 249 892 q 215 883 224 883 q 183 889 206 883 q 147 892 160 894 q 78 779 78 882 l 21 779 l 21 1056 l 78 1056 q 160 1050 114 1032 q 235 1043 207 1068 q 265 1026 253 1026 q 303 1056 282 1026 l 364 1056 z "},"8":{"ha":482,"x_min":49,"x_max":433,"o":"m 433 228 q 375 58 433 122 q 246 0 322 1 q 110 56 167 -1 q 49 228 49 119 l 49 347 q 132 540 49 478 q 49 732 49 603 l 49 826 q 107 997 49 933 q 236 1056 160 1054 q 371 1000 315 1057 q 433 826 433 936 l 433 732 q 350 540 433 603 q 433 347 433 478 l 433 228 m 310 669 l 310 890 q 289 960 310 933 q 240 986 268 986 q 193 960 214 986 q 172 890 172 933 l 172 669 q 192 603 172 626 q 240 579 213 579 q 290 603 269 579 q 310 669 310 626 m 310 165 l 310 404 q 289 474 310 449 q 240 500 268 500 q 193 474 214 500 q 172 404 172 449 l 172 165 q 193 96 172 122 q 240 69 214 69 q 289 96 268 69 q 310 165 310 122 z "},"9":{"ha":481,"x_min":49,"x_max":432,"o":"m 432 228 q 372 57 432 119 q 240 0 318 0 q 104 82 158 0 q 58 218 60 149 q 69 307 58 274 q 133 358 88 358 q 197 272 197 358 q 171 164 197 208 l 171 164 q 192 98 172 122 q 239 74 213 74 q 288 97 267 74 q 308 163 308 119 l 308 449 q 201 410 257 410 q 92 463 136 410 q 49 600 49 515 l 49 826 q 107 996 49 933 q 236 1056 160 1054 q 369 1000 315 1057 q 432 826 432 936 l 432 228 m 308 599 l 308 890 q 288 960 308 933 q 240 986 268 986 q 192 960 213 986 q 171 890 171 933 l 171 596 q 192 516 171 544 q 242 488 213 488 q 289 518 269 489 q 308 599 308 547 z "}," ":{"ha":313,"x_min":0,"x_max":0,"o":""},"!":{"ha":239,"x_min":49,"x_max":190,"o":"m 174 914 l 139 247 l 100 247 l 64 914 q 63 956 63 943 q 125 1056 63 1060 q 176 965 176 1051 q 174 914 176 958 m 190 96 q 169 28 190 56 q 119 0 149 0 q 69 28 90 0 q 49 96 49 56 q 69 163 49 135 q 119 190 90 190 q 169 163 149 190 q 190 96 190 135 z "},"\"":{"ha":406,"x_min":49,"x_max":357,"o":"m 190 960 q 162 849 190 901 q 81 772 133 796 q 122 865 118 813 q 119 865 121 865 q 69 893 90 865 q 49 960 49 921 q 69 1028 49 1000 q 119 1056 90 1056 q 169 1028 149 1056 q 190 960 190 1000 m 357 960 q 328 849 357 901 q 247 772 300 796 q 289 865 285 813 q 286 865 288 865 q 236 893 257 865 q 215 960 215 921 q 236 1028 215 1000 q 286 1056 257 1056 q 336 1028 315 1056 q 357 960 357 1000 z "},"#":{"ha":636,"x_min":49,"x_max":588,"o":"m 588 696 l 572 622 l 453 622 l 411 471 l 536 471 l 521 397 l 390 397 l 317 129 l 260 129 l 333 397 l 200 397 l 126 129 l 69 129 l 142 397 l 49 397 l 64 471 l 164 471 l 204 622 l 100 622 l 115 696 l 225 696 l 289 926 l 346 926 l 282 696 l 415 696 l 479 926 l 538 926 l 474 696 l 588 696 m 396 622 l 263 622 l 221 471 l 354 471 l 396 622 z "},"$":{"ha":386,"x_min":49,"x_max":338,"o":"m 315 639 l 263 639 l 263 754 q 201 869 263 851 l 201 583 l 213 568 q 297 440 274 485 q 338 300 338 365 q 313 194 338 247 q 201 122 279 122 l 201 0 l 185 0 l 185 124 q 154 132 168 126 q 119 125 125 146 l 69 125 l 69 418 l 118 418 l 118 310 q 185 176 118 185 l 185 461 q 97 586 140 524 q 49 728 51 658 q 79 854 46 794 q 185 926 119 922 l 185 1056 l 201 1056 l 201 925 q 236 910 213 917 q 264 922 250 910 q 288 933 278 933 q 315 894 315 933 l 315 639 m 185 607 l 185 869 q 138 811 151 861 q 132 732 128 774 q 185 607 136 676 m 254 256 q 201 435 261 335 l 201 435 l 201 175 q 254 256 247 182 z "},"%":{"ha":701,"x_min":49,"x_max":653,"o":"m 261 596 q 231 503 261 536 q 157 468 200 469 q 83 499 114 467 q 49 596 49 535 l 49 929 q 82 1024 49 989 q 156 1056 111 1056 q 230 1022 199 1056 q 261 929 261 989 l 261 929 l 261 596 m 529 1056 l 204 0 l 168 0 l 494 1056 l 529 1056 m 653 128 q 622 35 653 68 q 549 0 592 1 q 475 31 506 -1 q 440 128 440 67 l 440 461 q 474 556 440 521 q 547 588 503 588 q 622 554 590 588 q 653 461 653 521 l 653 461 l 653 128 m 193 560 l 193 965 q 156 1017 193 1017 q 117 965 117 1017 l 117 560 q 156 507 117 507 q 193 560 193 507 m 585 92 l 585 497 q 547 549 585 549 q 508 497 508 549 l 508 92 q 547 39 508 39 q 585 92 585 39 z "},"&":{"ha":482,"x_min":49,"x_max":433,"o":"m 431 176 q 433 135 433 160 q 378 -1 433 -1 q 311 50 336 -1 q 236 0 301 7 q 146 42 181 4 q 65 244 94 99 q 49 390 49 322 q 157 672 49 563 l 157 672 q 143 836 143 761 q 244 1056 143 1060 q 311 996 292 1058 q 324 894 326 950 q 261 736 319 786 q 336 313 281 551 q 350 444 350 388 q 319 514 350 521 l 319 531 l 424 531 l 424 517 q 385 375 406 515 q 361 200 372 288 q 389 118 365 118 q 403 125 400 118 q 406 176 410 138 l 431 176 m 278 896 q 261 985 279 979 q 235 929 235 983 q 251 814 235 892 l 251 814 q 278 896 275 815 m 281 118 q 172 568 221 301 q 142 426 142 528 q 183 193 142 297 q 281 118 228 81 z "},"'":{"ha":239,"x_min":49,"x_max":190,"o":"m 190 960 q 162 849 190 901 q 81 772 133 796 q 122 865 118 813 q 119 865 121 865 q 69 893 90 865 q 49 960 49 921 q 69 1028 49 1000 q 119 1056 90 1056 q 169 1028 149 1056 q 190 960 190 1000 z "},"(":{"ha":360,"x_min":51,"x_max":311,"o":"m 311 0 q 103 210 172 8 q 51 524 54 350 q 97 846 49 700 q 311 1056 165 1056 l 311 988 q 186 531 186 928 q 311 65 186 114 l 311 0 z "},")":{"ha":360,"x_min":49,"x_max":308,"o":"m 308 524 q 257 210 306 350 q 49 0 188 8 l 49 65 q 174 531 174 114 q 49 988 174 928 l 49 1056 q 263 846 194 1056 q 308 524 311 700 z "},"*":{"ha":525,"x_min":49,"x_max":476,"o":"m 465 939 q 476 907 476 921 q 407 849 476 869 q 308 826 358 838 q 381 776 344 801 q 431 707 431 738 q 406 665 431 685 q 372 651 389 651 q 301 713 336 651 q 260 801 281 757 q 224 711 242 757 q 160 650 194 650 q 121 668 140 650 q 101 707 101 686 q 144 776 101 736 q 213 828 179 801 q 133 843 172 835 q 60 876 79 856 q 49 907 49 889 q 62 944 49 926 q 93 965 75 963 q 172 935 124 972 q 239 876 206 906 q 208 1004 224 919 q 261 1056 207 1056 q 317 1001 318 1056 q 303 933 317 978 q 285 878 286 885 q 346 931 315 904 q 422 965 392 965 q 465 939 449 965 z "},"+":{"ha":406,"x_min":49,"x_max":357,"o":"m 228 682 l 228 553 l 357 553 l 357 503 l 228 503 l 228 374 l 178 374 l 178 503 l 49 503 l 49 553 l 178 553 l 178 682 l 228 682 z "},",":{"ha":239,"x_min":49,"x_max":190,"o":"m 190 96 q 163 -14 190 36 q 81 -93 133 -68 q 122 0 118 -51 q 119 0 121 0 q 69 28 90 0 q 49 96 49 56 q 69 163 49 135 q 119 190 90 190 q 169 163 149 190 q 190 96 190 135 z "},"-":{"ha":239,"x_min":21,"x_max":218,"o":"m 218 475 l 21 475 l 21 581 l 218 581 l 218 475 z "},".":{"ha":239,"x_min":49,"x_max":190,"o":"m 190 96 q 169 28 190 56 q 119 0 149 0 q 69 28 90 0 q 49 96 49 56 q 69 163 49 135 q 119 190 90 190 q 169 163 149 190 q 190 96 190 135 z "},"/":{"ha":406,"x_min":49,"x_max":357,"o":"m 357 1056 l 110 0 l 49 0 l 296 1056 l 357 1056 z "},":":{"ha":239,"x_min":49,"x_max":190,"o":"m 190 96 q 169 28 190 56 q 119 0 149 0 q 69 28 90 0 q 49 96 49 56 q 69 163 49 135 q 119 190 90 190 q 169 163 149 190 q 190 96 190 135 m 190 540 q 169 472 190 500 q 119 444 149 444 q 69 472 90 444 q 49 540 49 500 q 69 607 49 579 q 119 635 90 635 q 169 607 149 635 q 190 540 190 579 z "},";":{"ha":239,"x_min":49,"x_max":190,"o":"m 190 540 q 169 472 190 500 q 119 444 149 444 q 69 472 90 444 q 49 540 49 500 q 69 607 49 579 q 119 635 90 635 q 169 607 149 635 q 190 540 190 579 m 190 96 q 163 -14 190 36 q 81 -93 133 -68 q 122 0 118 -51 q 119 0 121 0 q 69 28 90 0 q 49 96 49 56 q 69 163 49 135 q 119 190 90 190 q 169 163 149 190 q 190 96 190 135 z "},"<":{"ha":521,"x_min":49,"x_max":472,"o":"m 472 0 l 49 543 l 472 1056 l 472 926 l 167 543 l 472 129 l 472 0 z "},"=":{"ha":406,"x_min":49,"x_max":357,"o":"m 357 558 l 49 558 l 49 608 l 357 608 l 357 558 m 357 447 l 49 447 l 49 497 l 357 497 l 357 447 z "},">":{"ha":521,"x_min":49,"x_max":472,"o":"m 472 543 l 49 0 l 49 129 l 354 543 l 49 926 l 49 1056 l 472 543 z "},"?":{"ha":424,"x_min":49,"x_max":371,"o":"m 371 774 q 297 531 369 699 q 232 250 228 368 l 188 250 q 179 358 179 306 q 214 575 179 449 q 254 778 251 708 q 250 893 257 838 q 206 983 239 983 q 168 950 182 982 q 156 897 157 924 q 181 790 181 854 q 119 704 181 706 q 60 756 76 704 q 49 844 49 789 q 92 989 50 929 q 218 1056 139 1057 q 371 774 375 1054 m 281 96 q 260 28 281 56 q 210 0 239 0 q 160 28 181 0 q 139 96 139 56 q 160 164 139 136 q 210 192 181 192 q 260 164 239 192 q 281 96 281 136 z "},"@":{"ha":1135,"x_min":49,"x_max":1086,"o":"m 815 804 l 936 804 q 717 328 717 365 q 781 267 717 267 q 953 410 881 267 q 1014 643 1014 532 q 900 903 1014 806 q 626 996 792 996 q 276 833 413 996 q 147 461 147 679 q 279 161 147 272 q 596 56 403 56 q 826 111 715 56 q 1008 263 938 167 l 1049 222 q 844 59 967 118 q 588 0 721 0 q 213 124 365 0 q 49 475 49 257 q 214 893 49 729 q 633 1057 379 1057 q 946 953 817 1057 q 1086 663 1086 842 q 1001 360 1086 501 q 754 197 904 197 q 660 232 699 197 q 622 322 622 267 q 422 214 526 214 q 300 267 344 214 q 256 399 256 319 q 367 690 256 563 q 644 824 483 824 q 774 738 743 824 l 815 804 m 372 371 q 393 314 372 339 q 446 289 414 289 q 639 440 546 289 q 724 686 724 578 q 651 772 724 772 q 458 618 553 772 q 372 371 372 478 z "},"A":{"ha":436,"x_min":21,"x_max":415,"o":"m 415 0 l 211 0 l 211 71 q 251 93 238 74 q 261 139 265 113 l 250 218 l 151 218 l 142 139 q 188 71 133 76 l 188 0 l 21 0 l 21 72 q 79 139 72 79 l 182 1056 l 242 1056 l 361 139 q 415 72 369 79 l 415 0 m 242 285 l 199 599 l 160 285 l 242 285 z "},"B":{"ha":543,"x_min":49,"x_max":493,"o":"m 493 279 q 278 0 489 0 l 278 0 l 49 0 l 49 0 l 49 71 q 107 139 107 81 l 107 915 q 49 983 107 975 l 49 1056 l 278 1056 q 493 776 489 1056 q 383 528 494 611 q 493 279 494 444 m 379 776 q 285 985 379 983 q 236 965 257 986 q 215 915 215 944 l 215 569 l 251 571 q 379 776 379 571 m 379 279 q 251 485 379 486 l 215 485 l 215 139 q 236 91 215 111 q 285 71 257 71 q 379 279 379 68 z "},"C":{"ha":471,"x_min":49,"x_max":422,"o":"m 422 668 l 347 668 l 346 890 q 317 972 346 940 q 254 1001 290 1000 q 197 978 219 1001 q 171 907 171 953 l 171 164 q 258 71 171 68 q 319 96 292 71 q 346 158 346 121 l 346 392 l 421 392 l 421 156 q 369 33 421 79 q 247 -14 318 -12 q 100 54 156 -15 q 49 215 49 119 l 49 842 q 99 999 49 933 q 240 1069 153 1071 q 328 1044 285 1068 q 353 1054 350 1032 l 422 1054 l 422 668 z "},"D":{"ha":521,"x_min":49,"x_max":472,"o":"m 472 229 q 424 72 472 136 q 278 0 369 0 l 49 0 l 49 72 q 107 139 107 81 l 107 917 q 49 983 107 975 l 49 1056 l 253 1056 q 413 991 353 1056 q 472 829 472 926 l 472 229 m 350 167 l 350 894 q 328 961 350 936 q 279 986 307 986 q 215 917 215 986 l 215 139 q 276 71 215 67 q 328 98 306 72 q 350 167 350 124 z "},"E":{"ha":468,"x_min":49,"x_max":419,"o":"m 419 0 l 49 0 l 49 72 q 107 139 107 81 l 107 917 q 49 983 107 975 l 49 1056 l 419 1056 l 419 676 l 367 676 q 364 854 368 818 q 283 985 347 983 q 235 965 256 986 q 215 917 215 943 l 215 583 l 240 583 q 263 625 265 583 l 261 665 l 326 665 l 326 404 l 268 404 l 268 442 q 242 485 268 485 l 215 485 l 215 139 q 234 93 215 115 q 278 71 253 71 q 360 201 340 68 q 367 379 368 260 l 419 379 l 419 0 z "},"F":{"ha":440,"x_min":49,"x_max":419,"o":"m 419 676 l 367 676 q 276 988 368 978 q 233 967 251 990 q 215 917 215 943 l 215 583 l 240 583 q 263 625 265 583 l 261 665 l 326 665 l 326 404 l 268 404 l 268 442 q 242 485 268 485 l 215 485 l 215 139 q 233 93 215 113 q 278 71 251 74 l 278 0 l 49 0 l 49 72 q 107 139 107 81 l 107 917 q 49 983 107 975 l 49 1056 l 419 1056 l 419 676 z "},"G":{"ha":532,"x_min":49,"x_max":483,"o":"m 483 461 q 422 388 422 456 l 422 0 l 358 0 l 336 15 q 244 -14 294 -12 q 110 42 165 -15 q 49 215 49 106 l 49 842 q 99 999 49 933 q 240 1069 153 1071 q 328 1044 285 1068 q 353 1054 350 1032 l 424 1054 l 424 681 l 351 681 q 331 903 358 814 q 240 1000 300 1000 q 192 974 213 1000 q 171 907 171 949 l 171 151 q 192 82 171 108 q 240 56 213 56 q 288 82 268 56 q 308 151 308 108 l 308 392 q 254 460 308 451 l 254 532 l 483 532 l 483 461 z "},"H":{"ha":599,"x_min":49,"x_max":550,"o":"m 550 0 l 321 0 l 321 72 q 379 139 379 81 l 379 493 l 215 493 l 215 139 q 233 93 215 113 q 278 71 251 74 l 278 0 l 49 0 l 49 72 q 107 139 107 81 l 107 917 q 49 983 107 975 l 49 1056 l 278 1056 l 278 985 q 233 963 251 982 q 215 917 215 943 l 215 563 l 379 563 l 379 917 q 321 983 379 975 l 321 1056 l 550 1056 l 550 985 q 506 963 524 982 q 488 917 488 943 l 488 139 q 506 93 488 113 q 550 71 524 74 l 550 0 z "},"I":{"ha":326,"x_min":49,"x_max":278,"o":"m 278 0 l 49 0 l 49 72 q 107 139 107 81 l 107 917 q 49 983 107 975 l 49 1056 l 278 1056 l 278 985 q 233 963 251 982 q 215 917 215 943 l 215 139 q 233 93 215 113 q 278 71 251 74 l 278 0 z "},"J":{"ha":458,"x_min":21,"x_max":410,"o":"m 410 983 q 351 915 351 975 l 353 224 q 301 57 353 114 q 164 0 250 0 q 21 208 21 0 q 24 264 21 236 q 100 403 36 403 q 117 400 108 403 q 147 356 147 393 q 103 225 147 317 q 92 169 92 203 q 164 68 92 71 q 235 125 217 67 q 243 224 243 153 l 242 915 q 224 962 242 942 q 179 985 206 982 l 179 1056 l 410 1056 l 410 983 z "},"K":{"ha":571,"x_min":49,"x_max":550,"o":"m 550 0 l 326 0 l 326 72 q 364 139 371 79 l 304 588 l 215 376 l 215 139 q 233 93 215 113 q 278 71 251 74 l 278 0 l 49 0 l 49 72 q 107 139 107 81 l 107 917 q 49 983 107 975 l 49 1056 l 278 1056 l 278 985 q 233 963 251 982 q 215 917 215 943 l 215 563 l 361 879 q 374 929 374 907 q 321 983 374 975 l 321 1056 l 550 1056 l 550 985 q 461 886 507 981 l 397 751 l 488 139 q 550 71 497 76 l 550 0 z "},"L":{"ha":440,"x_min":49,"x_max":419,"o":"m 419 0 l 49 0 l 49 72 q 107 139 107 81 l 107 917 q 49 983 107 975 l 49 1056 l 278 1056 l 278 985 q 233 963 251 982 q 215 917 215 943 l 215 139 q 233 89 215 113 q 276 68 251 65 q 367 379 368 78 l 419 379 l 419 0 z "},"M":{"ha":672,"x_min":49,"x_max":624,"o":"m 624 0 l 394 0 l 394 72 q 451 139 451 81 l 451 743 l 343 0 l 278 0 l 174 742 l 174 139 q 192 93 174 113 q 236 71 210 74 l 236 0 l 49 0 l 49 72 q 107 139 107 81 l 107 917 q 49 983 107 975 l 49 1056 l 240 1056 l 328 421 l 415 1056 l 611 1056 l 611 985 q 561 917 561 979 l 561 139 q 579 93 561 113 q 624 71 597 74 l 624 0 z "},"N":{"ha":579,"x_min":49,"x_max":558,"o":"m 558 985 q 514 963 532 982 q 496 917 496 943 l 496 0 l 375 0 l 186 814 l 186 139 q 204 93 186 113 q 249 71 222 74 l 249 0 l 49 0 l 49 72 q 107 139 107 81 l 107 917 q 49 983 107 975 l 49 1056 l 249 1056 l 417 439 l 417 917 q 358 983 417 975 l 358 1056 l 558 1056 l 558 985 z "},"O":{"ha":481,"x_min":49,"x_max":432,"o":"m 432 215 q 374 44 432 108 q 244 -14 321 -12 q 110 42 165 -15 q 49 215 49 106 l 49 842 q 108 1013 49 950 q 240 1069 163 1069 q 371 1013 318 1069 q 432 842 432 949 l 432 842 l 432 215 m 308 151 l 308 907 q 288 974 308 949 q 240 1000 268 1000 q 192 974 213 1000 q 171 907 171 949 l 171 151 q 192 82 171 108 q 240 56 213 56 q 288 82 268 56 q 308 151 308 108 z "},"P":{"ha":514,"x_min":49,"x_max":493,"o":"m 493 776 q 428 571 493 654 q 251 485 358 483 l 215 485 l 215 139 q 233 93 215 113 q 278 71 251 74 l 278 0 l 49 0 l 49 72 q 107 139 107 81 l 107 917 q 49 983 107 975 l 49 1056 l 278 1056 q 493 776 490 1056 m 379 776 q 285 985 381 983 q 236 965 257 986 q 215 917 215 944 l 215 565 q 328 596 293 564 q 379 776 378 643 z "},"Q":{"ha":524,"x_min":49,"x_max":503,"o":"m 503 93 q 400 -3 453 -3 q 347 21 378 -3 q 244 -14 301 -12 q 110 42 165 -15 q 49 215 49 106 l 49 842 q 108 1013 49 950 q 240 1069 163 1069 q 371 1013 318 1069 q 432 842 432 949 l 432 842 l 432 215 q 407 96 432 147 q 439 83 425 83 q 482 119 464 83 l 503 93 m 308 183 l 308 907 q 288 974 308 949 q 240 1000 268 1000 q 192 974 213 1000 q 171 907 171 949 l 171 151 q 172 136 171 143 q 260 201 214 201 q 308 183 282 201 m 286 79 l 278 86 q 221 119 246 119 q 185 93 200 119 q 240 56 204 56 q 286 79 267 56 z "},"R":{"ha":603,"x_min":49,"x_max":582,"o":"m 582 211 l 582 83 q 545 23 582 46 q 467 0 508 0 q 399 21 425 0 q 368 85 368 43 l 368 356 q 338 447 368 410 q 254 485 308 485 l 215 485 l 215 139 q 233 93 215 113 q 278 71 251 74 l 278 0 l 49 0 l 49 72 q 107 139 107 81 l 107 917 q 49 983 107 975 l 49 1056 l 278 1056 q 493 776 490 1056 q 353 529 494 574 q 488 356 488 521 l 488 106 q 507 75 488 74 q 526 104 522 76 l 526 211 l 582 211 m 379 776 q 285 985 381 983 q 236 965 257 986 q 215 917 215 944 l 215 565 q 328 596 293 564 q 379 776 378 643 z "},"S":{"ha":478,"x_min":53,"x_max":429,"o":"m 400 685 l 332 685 l 332 835 q 242 989 332 971 q 172 917 192 985 q 161 806 157 867 q 267 579 168 713 q 378 407 344 474 q 429 217 429 306 q 397 78 429 146 q 275 -15 360 -3 q 190 -4 229 -21 q 165 4 174 4 q 146 -14 150 4 l 81 -14 l 81 369 l 143 369 l 143 226 q 240 51 143 54 q 321 157 310 50 q 164 532 335 300 q 53 801 58 674 q 94 968 49 890 q 236 1060 149 1058 q 268 1049 249 1061 q 299 1038 288 1038 q 333 1053 315 1038 q 364 1068 351 1068 q 400 1018 400 1068 l 400 685 z "},"T":{"ha":489,"x_min":21,"x_max":468,"o":"m 468 676 l 403 676 l 400 917 q 353 975 400 972 q 300 917 300 976 l 300 139 q 317 94 300 114 q 361 71 335 74 l 361 0 l 128 0 l 128 71 q 172 94 154 74 q 189 139 189 114 l 189 917 q 140 975 189 974 q 90 921 92 976 l 86 676 l 21 676 l 21 1056 l 468 1056 l 468 676 z "},"U":{"ha":492,"x_min":21,"x_max":471,"o":"m 471 985 q 426 962 444 982 q 408 915 408 942 l 408 225 q 267 0 408 0 q 129 57 181 0 q 78 224 78 114 l 79 915 q 21 983 79 975 l 21 1056 l 251 1056 l 251 985 q 207 962 225 982 q 189 915 189 942 l 188 224 q 196 125 188 153 q 267 68 213 67 q 321 128 308 69 q 328 225 328 157 l 328 915 q 269 983 328 975 l 269 1056 l 471 1056 l 471 985 z "},"V":{"ha":436,"x_min":21,"x_max":415,"o":"m 415 983 q 357 917 364 976 l 254 0 l 194 0 l 75 917 q 21 983 67 976 l 21 1056 l 225 1056 l 225 985 q 185 963 199 982 q 175 917 172 943 l 239 457 l 294 917 q 250 985 303 979 l 250 1056 l 415 1056 l 415 983 z "},"W":{"ha":656,"x_min":21,"x_max":635,"o":"m 635 985 q 578 917 583 976 l 475 0 l 415 0 l 331 647 l 254 0 l 194 0 l 75 915 q 21 983 67 975 l 21 1054 l 224 1054 l 224 983 q 175 915 167 976 l 238 457 l 297 915 q 240 985 289 976 l 240 1054 l 444 1054 l 444 985 q 406 963 419 982 q 396 917 392 943 l 458 458 l 514 917 q 469 985 522 979 l 469 1056 l 635 1056 l 635 985 z "},"X":{"ha":572,"x_min":49,"x_max":524,"o":"m 524 985 q 446 896 474 979 l 343 576 l 451 168 q 471 107 464 121 q 521 71 489 74 l 521 0 l 265 0 l 265 72 q 322 133 322 81 q 318 163 322 147 l 271 350 l 211 164 q 203 119 203 139 q 249 71 203 75 l 249 0 l 49 0 l 49 72 q 94 110 78 76 q 117 168 100 118 l 232 504 l 135 892 q 67 983 114 976 l 67 1056 l 308 1056 l 308 985 q 256 928 256 979 q 260 897 256 914 l 306 719 l 369 903 q 374 928 374 915 q 324 983 374 976 l 324 1056 l 524 1056 l 524 985 z "},"Y":{"ha":499,"x_min":21,"x_max":478,"o":"m 478 985 q 400 897 428 979 l 299 578 l 299 168 q 349 71 299 76 l 349 0 l 113 0 l 113 72 q 158 110 149 76 q 165 175 165 126 l 168 576 l 89 893 q 21 983 68 976 l 21 1056 l 263 1056 l 263 985 q 210 928 210 979 q 214 897 210 914 l 261 721 l 324 903 q 328 928 328 915 q 278 983 328 976 l 278 1056 l 478 1056 l 478 985 z "},"Z":{"ha":532,"x_min":49,"x_max":483,"o":"m 483 1056 l 222 174 q 215 135 215 154 q 260 82 215 82 q 385 197 344 82 q 414 379 413 276 l 471 379 l 471 0 l 49 0 l 314 894 q 317 919 317 907 q 268 975 317 975 q 246 971 258 975 q 144 856 178 950 q 118 676 118 779 l 61 676 l 61 1056 l 483 1056 z "},"[":{"ha":276,"x_min":69,"x_max":228,"o":"m 228 -153 l 69 -153 l 69 1056 l 228 1056 l 228 982 l 179 982 l 179 -79 l 228 -79 l 228 -153 z "},"\\":{"ha":406,"x_min":49,"x_max":357,"o":"m 357 0 l 296 0 l 49 1056 l 110 1056 l 357 0 z "},"]":{"ha":276,"x_min":49,"x_max":207,"o":"m 207 -153 l 49 -153 l 49 -79 l 97 -79 l 97 982 l 49 982 l 49 1056 l 207 1056 l 207 -153 z "},"^":{"ha":571,"x_min":49,"x_max":522,"o":"m 522 375 l 463 375 l 285 558 l 107 375 l 49 375 l 285 711 l 522 375 z "},"_":{"ha":579,"x_min":0,"x_max":631,"o":"m 0 -57 l 631 -57 l 631 -94 l 0 -94 l 0 -57 z "},"`":{"ha":269,"x_min":49,"x_max":221,"o":"m 221 1111 l 186 1111 l 49 1307 l 119 1307 l 221 1111 z "},"a":{"ha":436,"x_min":21,"x_max":415,"o":"m 415 0 l 211 0 l 211 71 q 251 93 238 74 q 261 139 265 113 l 250 218 l 151 218 l 142 139 q 188 71 133 76 l 188 0 l 21 0 l 21 72 q 79 139 72 79 l 182 1056 l 242 1056 l 361 139 q 415 72 369 79 l 415 0 m 242 285 l 199 599 l 160 285 l 242 285 z "},"b":{"ha":543,"x_min":49,"x_max":493,"o":"m 493 279 q 278 0 489 0 l 278 0 l 49 0 l 49 0 l 49 71 q 107 139 107 81 l 107 915 q 49 983 107 975 l 49 1056 l 278 1056 q 493 776 489 1056 q 383 528 494 611 q 493 279 494 444 m 379 776 q 285 985 379 983 q 236 965 257 986 q 215 915 215 944 l 215 569 l 251 571 q 379 776 379 571 m 379 279 q 251 485 379 486 l 215 485 l 215 139 q 236 91 215 111 q 285 71 257 71 q 379 279 379 68 z "},"c":{"ha":471,"x_min":49,"x_max":422,"o":"m 422 668 l 347 668 l 346 890 q 317 972 346 940 q 254 1001 290 1000 q 197 978 219 1001 q 171 907 171 953 l 171 164 q 258 71 171 68 q 319 96 292 71 q 346 158 346 121 l 346 392 l 421 392 l 421 156 q 369 33 421 79 q 247 -14 318 -12 q 100 54 156 -15 q 49 215 49 119 l 49 842 q 99 999 49 933 q 240 1069 153 1071 q 328 1044 285 1068 q 353 1054 350 1032 l 422 1054 l 422 668 z "},"d":{"ha":521,"x_min":49,"x_max":472,"o":"m 472 229 q 424 72 472 136 q 278 0 369 0 l 49 0 l 49 72 q 107 139 107 81 l 107 917 q 49 983 107 975 l 49 1056 l 253 1056 q 413 991 353 1056 q 472 829 472 926 l 472 229 m 350 167 l 350 894 q 328 961 350 936 q 279 986 307 986 q 215 917 215 986 l 215 139 q 276 71 215 67 q 328 98 306 72 q 350 167 350 124 z "},"e":{"ha":468,"x_min":49,"x_max":419,"o":"m 419 0 l 49 0 l 49 72 q 107 139 107 81 l 107 917 q 49 983 107 975 l 49 1056 l 419 1056 l 419 676 l 367 676 q 364 854 368 818 q 283 985 347 983 q 235 965 256 986 q 215 917 215 943 l 215 583 l 240 583 q 263 625 265 583 l 261 665 l 326 665 l 326 404 l 268 404 l 268 442 q 242 485 268 485 l 215 485 l 215 139 q 234 93 215 115 q 278 71 253 71 q 360 201 340 68 q 367 379 368 260 l 419 379 l 419 0 z "},"f":{"ha":440,"x_min":49,"x_max":419,"o":"m 419 676 l 367 676 q 276 988 368 978 q 233 967 251 990 q 215 917 215 943 l 215 583 l 240 583 q 263 625 265 583 l 261 665 l 326 665 l 326 404 l 268 404 l 268 442 q 242 485 268 485 l 215 485 l 215 139 q 233 93 215 113 q 278 71 251 74 l 278 0 l 49 0 l 49 72 q 107 139 107 81 l 107 917 q 49 983 107 975 l 49 1056 l 419 1056 l 419 676 z "},"g":{"ha":532,"x_min":49,"x_max":483,"o":"m 483 461 q 422 388 422 456 l 422 0 l 358 0 l 336 15 q 244 -14 294 -12 q 110 42 165 -15 q 49 215 49 106 l 49 842 q 99 999 49 933 q 240 1069 153 1071 q 328 1044 285 1068 q 353 1054 350 1032 l 424 1054 l 424 681 l 351 681 q 331 903 358 814 q 240 1000 300 1000 q 192 974 213 1000 q 171 907 171 949 l 171 151 q 192 82 171 108 q 240 56 213 56 q 288 82 268 56 q 308 151 308 108 l 308 392 q 254 460 308 451 l 254 532 l 483 532 l 483 461 z "},"h":{"ha":599,"x_min":49,"x_max":550,"o":"m 550 0 l 321 0 l 321 72 q 379 139 379 81 l 379 493 l 215 493 l 215 139 q 233 93 215 113 q 278 71 251 74 l 278 0 l 49 0 l 49 72 q 107 139 107 81 l 107 917 q 49 983 107 975 l 49 1056 l 278 1056 l 278 985 q 233 963 251 982 q 215 917 215 943 l 215 563 l 379 563 l 379 917 q 321 983 379 975 l 321 1056 l 550 1056 l 550 985 q 506 963 524 982 q 488 917 488 943 l 488 139 q 506 93 488 113 q 550 71 524 74 l 550 0 z "},"i":{"ha":326,"x_min":49,"x_max":278,"o":"m 278 0 l 49 0 l 49 72 q 107 139 107 81 l 107 917 q 49 983 107 975 l 49 1056 l 278 1056 l 278 985 q 233 963 251 982 q 215 917 215 943 l 215 139 q 233 93 215 113 q 278 71 251 74 l 278 0 z "},"j":{"ha":458,"x_min":21,"x_max":410,"o":"m 410 983 q 351 915 351 975 l 353 224 q 301 57 353 114 q 164 0 250 0 q 21 208 21 0 q 24 264 21 236 q 100 403 36 403 q 117 400 108 403 q 147 356 147 393 q 103 225 147 317 q 92 169 92 203 q 164 68 92 71 q 235 125 217 67 q 243 224 243 153 l 242 915 q 224 962 242 942 q 179 985 206 982 l 179 1056 l 410 1056 l 410 983 z "},"k":{"ha":571,"x_min":49,"x_max":550,"o":"m 550 0 l 326 0 l 326 72 q 364 139 371 79 l 304 588 l 215 376 l 215 139 q 233 93 215 113 q 278 71 251 74 l 278 0 l 49 0 l 49 72 q 107 139 107 81 l 107 917 q 49 983 107 975 l 49 1056 l 278 1056 l 278 985 q 233 963 251 982 q 215 917 215 943 l 215 563 l 361 879 q 374 929 374 907 q 321 983 374 975 l 321 1056 l 550 1056 l 550 985 q 461 886 507 981 l 397 751 l 488 139 q 550 71 497 76 l 550 0 z "},"l":{"ha":440,"x_min":49,"x_max":419,"o":"m 419 0 l 49 0 l 49 72 q 107 139 107 81 l 107 917 q 49 983 107 975 l 49 1056 l 278 1056 l 278 985 q 233 963 251 982 q 215 917 215 943 l 215 139 q 233 89 215 113 q 276 68 251 65 q 367 379 368 78 l 419 379 l 419 0 z "},"m":{"ha":672,"x_min":49,"x_max":624,"o":"m 624 0 l 394 0 l 394 72 q 451 139 451 81 l 451 743 l 343 0 l 278 0 l 174 742 l 174 139 q 192 93 174 113 q 236 71 210 74 l 236 0 l 49 0 l 49 72 q 107 139 107 81 l 107 917 q 49 983 107 975 l 49 1056 l 240 1056 l 328 421 l 415 1056 l 611 1056 l 611 985 q 561 917 561 979 l 561 139 q 579 93 561 113 q 624 71 597 74 l 624 0 z "},"n":{"ha":579,"x_min":49,"x_max":558,"o":"m 558 985 q 514 963 532 982 q 496 917 496 943 l 496 0 l 375 0 l 186 814 l 186 139 q 204 93 186 113 q 249 71 222 74 l 249 0 l 49 0 l 49 72 q 107 139 107 81 l 107 917 q 49 983 107 975 l 49 1056 l 249 1056 l 417 439 l 417 917 q 358 983 417 975 l 358 1056 l 558 1056 l 558 985 z "},"o":{"ha":481,"x_min":49,"x_max":432,"o":"m 432 215 q 374 44 432 108 q 244 -14 321 -12 q 110 42 165 -15 q 49 215 49 106 l 49 842 q 108 1013 49 950 q 240 1069 163 1069 q 371 1013 318 1069 q 432 842 432 949 l 432 842 l 432 215 m 308 151 l 308 907 q 288 974 308 949 q 240 1000 268 1000 q 192 974 213 1000 q 171 907 171 949 l 171 151 q 192 82 171 108 q 240 56 213 56 q 288 82 268 56 q 308 151 308 108 z "},"p":{"ha":514,"x_min":49,"x_max":493,"o":"m 493 776 q 428 571 493 654 q 251 485 358 483 l 215 485 l 215 139 q 233 93 215 113 q 278 71 251 74 l 278 0 l 49 0 l 49 72 q 107 139 107 81 l 107 917 q 49 983 107 975 l 49 1056 l 278 1056 q 493 776 490 1056 m 379 776 q 285 985 381 983 q 236 965 257 986 q 215 917 215 944 l 215 565 q 328 596 293 564 q 379 776 378 643 z "},"q":{"ha":524,"x_min":49,"x_max":503,"o":"m 503 93 q 400 -3 453 -3 q 347 21 378 -3 q 244 -14 301 -12 q 110 42 165 -15 q 49 215 49 106 l 49 842 q 108 1013 49 950 q 240 1069 163 1069 q 371 1013 318 1069 q 432 842 432 949 l 432 842 l 432 215 q 407 96 432 147 q 439 83 425 83 q 482 119 464 83 l 503 93 m 308 183 l 308 907 q 288 974 308 949 q 240 1000 268 1000 q 192 974 213 1000 q 171 907 171 949 l 171 151 q 172 136 171 143 q 260 201 214 201 q 308 183 282 201 m 286 79 l 278 86 q 221 119 246 119 q 185 93 200 119 q 240 56 204 56 q 286 79 267 56 z "},"r":{"ha":603,"x_min":49,"x_max":582,"o":"m 582 211 l 582 83 q 545 23 582 46 q 467 0 508 0 q 399 21 425 0 q 368 85 368 43 l 368 356 q 338 447 368 410 q 254 485 308 485 l 215 485 l 215 139 q 233 93 215 113 q 278 71 251 74 l 278 0 l 49 0 l 49 72 q 107 139 107 81 l 107 917 q 49 983 107 975 l 49 1056 l 278 1056 q 493 776 490 1056 q 353 529 494 574 q 488 356 488 521 l 488 106 q 507 75 488 74 q 526 104 522 76 l 526 211 l 582 211 m 379 776 q 285 985 381 983 q 236 965 257 986 q 215 917 215 944 l 215 565 q 328 596 293 564 q 379 776 378 643 z "},"s":{"ha":478,"x_min":53,"x_max":429,"o":"m 400 685 l 332 685 l 332 835 q 242 989 332 971 q 172 917 192 985 q 161 806 157 867 q 267 579 168 713 q 378 407 344 474 q 429 217 429 306 q 397 78 429 146 q 275 -15 360 -3 q 190 -4 229 -21 q 165 4 174 4 q 146 -14 150 4 l 81 -14 l 81 369 l 143 369 l 143 226 q 240 51 143 54 q 321 157 310 50 q 164 532 335 300 q 53 801 58 674 q 94 968 49 890 q 236 1060 149 1058 q 268 1049 249 1061 q 299 1038 288 1038 q 333 1053 315 1038 q 364 1068 351 1068 q 400 1018 400 1068 l 400 685 z "},"t":{"ha":489,"x_min":21,"x_max":468,"o":"m 468 676 l 403 676 l 400 917 q 353 975 400 972 q 300 917 300 976 l 300 139 q 317 94 300 114 q 361 71 335 74 l 361 0 l 128 0 l 128 71 q 172 94 154 74 q 189 139 189 114 l 189 917 q 140 975 189 974 q 90 921 92 976 l 86 676 l 21 676 l 21 1056 l 468 1056 l 468 676 z "},"u":{"ha":492,"x_min":21,"x_max":471,"o":"m 471 985 q 426 962 444 982 q 408 915 408 942 l 408 225 q 267 0 408 0 q 129 57 181 0 q 78 224 78 114 l 79 915 q 21 983 79 975 l 21 1056 l 251 1056 l 251 985 q 207 962 225 982 q 189 915 189 942 l 188 224 q 196 125 188 153 q 267 68 213 67 q 321 128 308 69 q 328 225 328 157 l 328 915 q 269 983 328 975 l 269 1056 l 471 1056 l 471 985 z "},"v":{"ha":436,"x_min":21,"x_max":415,"o":"m 415 983 q 357 917 364 976 l 254 0 l 194 0 l 75 917 q 21 983 67 976 l 21 1056 l 225 1056 l 225 985 q 185 963 199 982 q 175 917 172 943 l 239 457 l 294 917 q 250 985 303 979 l 250 1056 l 415 1056 l 415 983 z "},"w":{"ha":656,"x_min":21,"x_max":635,"o":"m 635 985 q 578 917 583 976 l 475 0 l 415 0 l 331 647 l 254 0 l 194 0 l 75 915 q 21 983 67 975 l 21 1054 l 224 1054 l 224 983 q 175 915 167 976 l 238 457 l 297 915 q 240 985 289 976 l 240 1054 l 444 1054 l 444 985 q 406 963 419 982 q 396 917 392 943 l 458 458 l 514 917 q 469 985 522 979 l 469 1056 l 635 1056 l 635 985 z "},"x":{"ha":572,"x_min":49,"x_max":524,"o":"m 524 985 q 446 896 474 979 l 343 576 l 451 168 q 471 107 464 121 q 521 71 489 74 l 521 0 l 265 0 l 265 72 q 322 133 322 81 q 318 163 322 147 l 271 350 l 211 164 q 203 119 203 139 q 249 71 203 75 l 249 0 l 49 0 l 49 72 q 94 110 78 76 q 117 168 100 118 l 232 504 l 135 892 q 67 983 114 976 l 67 1056 l 308 1056 l 308 985 q 256 928 256 979 q 260 897 256 914 l 306 719 l 369 903 q 374 928 374 915 q 324 983 374 976 l 324 1056 l 524 1056 l 524 985 z "},"y":{"ha":499,"x_min":21,"x_max":478,"o":"m 478 985 q 400 897 428 979 l 299 578 l 299 168 q 349 71 299 76 l 349 0 l 113 0 l 113 72 q 158 110 149 76 q 165 175 165 126 l 168 576 l 89 893 q 21 983 68 976 l 21 1056 l 263 1056 l 263 985 q 210 928 210 979 q 214 897 210 914 l 261 721 l 324 903 q 328 928 328 915 q 278 983 328 976 l 278 1056 l 478 1056 l 478 985 z "},"z":{"ha":532,"x_min":49,"x_max":483,"o":"m 483 1056 l 222 174 q 215 135 215 154 q 260 82 215 82 q 385 197 344 82 q 414 379 413 276 l 471 379 l 471 0 l 49 0 l 314 894 q 317 919 317 907 q 268 975 317 975 q 246 971 258 975 q 144 856 178 950 q 118 676 118 779 l 61 676 l 61 1056 l 483 1056 z "},"{":{"ha":343,"x_min":49,"x_max":294,"o":"m 294 -28 q 149 63 183 -29 q 128 250 128 117 q 108 421 129 357 q 49 485 88 485 l 49 569 q 122 667 106 572 q 128 806 129 710 q 149 993 128 939 q 294 1083 183 1085 l 294 1013 q 240 846 240 983 q 243 767 240 815 q 246 704 246 718 q 178 528 246 571 q 246 351 246 485 q 243 289 246 338 q 240 210 240 240 q 294 43 240 72 l 294 -28 z "},"}":{"ha":343,"x_min":49,"x_max":294,"o":"m 294 485 q 235 421 256 485 q 215 250 214 357 q 196 63 217 117 q 49 -28 160 -29 l 49 43 q 103 210 103 72 q 100 289 103 240 q 97 351 97 338 q 167 528 97 485 q 97 704 97 571 q 100 767 97 718 q 103 846 103 815 q 49 1013 103 983 l 49 1083 q 196 993 160 1085 q 215 806 215 939 q 222 667 214 710 q 294 569 239 572 l 294 485 z "},"~":{"ha":624,"x_min":49,"x_max":575,"o":"m 575 574 q 428 443 531 443 q 295 474 382 443 q 163 504 208 504 q 92 451 104 504 l 49 472 q 203 597 92 597 q 333 568 249 597 q 461 539 418 539 q 533 592 515 539 l 575 574 z "},"¡":{"ha":239,"x_min":49,"x_max":190,"o":"m 190 960 q 169 893 190 921 q 119 865 149 865 q 69 893 90 865 q 49 960 49 921 q 69 1028 49 1000 q 119 1056 90 1056 q 169 1028 149 1056 q 190 960 190 1000 m 175 142 q 176 100 176 113 q 114 0 176 -4 q 63 90 63 4 q 65 142 63 97 l 100 808 l 140 808 l 175 142 z "},"¢":{"ha":383,"x_min":49,"x_max":335,"o":"m 335 592 l 278 592 l 276 707 q 256 767 275 744 q 208 792 236 790 l 208 275 l 210 275 q 256 295 235 276 q 276 343 276 314 l 276 467 l 333 467 l 335 340 q 298 250 335 285 q 208 211 261 215 l 208 0 l 192 0 l 192 211 q 86 267 125 214 q 49 386 49 315 l 49 671 q 86 789 49 739 q 192 844 126 844 l 192 1056 l 208 1056 l 208 843 q 263 825 236 840 q 282 833 279 817 l 335 833 l 335 592 m 192 276 l 192 792 q 143 721 143 782 l 143 347 q 192 276 143 288 z "},"£":{"ha":458,"x_min":21,"x_max":410,"o":"m 331 653 q 282 700 282 653 q 310 793 282 733 q 338 886 338 853 q 322 953 338 924 q 267 988 303 988 q 188 849 188 988 l 189 556 l 251 556 l 251 500 l 189 500 l 189 140 q 208 92 189 114 q 253 71 228 71 q 339 204 319 71 q 346 389 347 263 l 399 389 l 399 0 l 21 0 l 21 72 q 63 96 46 76 q 79 140 79 115 l 78 500 l 21 500 l 21 556 l 78 556 l 78 832 q 122 989 78 931 q 267 1056 172 1056 q 410 847 410 1056 q 331 653 410 653 z "},"¤":{"ha":524,"x_min":21,"x_max":475,"o":"m 475 842 l 401 842 l 399 876 q 369 957 396 928 q 307 988 343 986 q 250 964 272 988 q 224 893 224 939 l 224 621 l 435 621 l 414 572 l 224 572 l 224 508 l 386 508 l 367 460 l 224 460 l 224 178 q 311 85 224 82 q 372 110 344 85 q 399 172 399 135 l 399 253 l 474 253 l 475 169 q 423 47 475 93 q 300 0 371 1 q 153 68 208 -1 q 101 229 101 133 l 101 460 l 21 461 l 42 510 l 101 508 l 101 572 l 21 572 l 42 621 l 101 621 l 101 828 q 151 985 101 919 q 293 1056 206 1057 q 381 1031 338 1054 q 406 1040 403 1018 l 475 1040 l 475 842 z "},"¥":{"ha":499,"x_min":21,"x_max":478,"o":"m 478 985 q 400 897 428 979 l 303 593 l 426 593 l 426 544 l 299 544 l 299 481 l 426 481 l 426 432 l 299 432 l 299 168 q 349 71 299 76 l 349 0 l 113 0 l 113 72 q 158 110 149 76 q 165 175 165 126 l 167 432 l 47 432 l 47 481 l 168 481 l 168 544 l 47 544 l 47 593 l 164 593 l 89 893 q 21 983 68 976 l 21 1056 l 263 1056 l 263 985 q 210 928 210 979 q 214 897 210 914 l 261 721 l 324 903 q 328 928 328 915 q 278 983 328 976 l 278 1056 l 478 1056 l 478 985 z "},"¨":{"ha":394,"x_min":49,"x_max":346,"o":"m 346 1167 q 329 1128 346 1144 q 289 1111 313 1111 q 250 1128 267 1111 q 233 1167 233 1144 q 250 1207 233 1190 q 289 1224 267 1224 q 329 1207 313 1224 q 346 1167 346 1190 m 161 1167 q 144 1128 161 1144 q 104 1111 128 1111 q 65 1128 82 1111 q 49 1167 49 1144 q 65 1207 49 1190 q 104 1224 82 1224 q 144 1207 128 1224 q 161 1167 161 1190 z "},"©":{"ha":1153,"x_min":49,"x_max":1104,"o":"m 1104 528 q 952 152 1104 304 q 576 0 800 0 q 201 152 353 0 q 49 528 49 304 q 201 903 49 751 q 576 1056 353 1056 q 952 903 800 1056 q 1104 528 1104 751 m 100 528 q 238 189 100 326 q 576 51 375 51 q 915 189 778 51 q 1053 528 1053 326 q 915 867 1053 729 q 576 1004 778 1004 q 238 867 375 1004 q 100 528 100 729 m 254 514 q 350 307 254 388 q 568 231 439 231 q 899 406 781 231 l 844 440 q 568 299 744 299 q 411 356 481 299 q 336 500 336 415 q 406 690 336 625 q 603 756 476 756 q 832 632 756 756 l 894 664 q 597 825 813 825 q 354 746 447 825 q 254 514 254 661 z "},"ª":{"ha":351,"x_min":49,"x_max":303,"o":"m 194 553 l 194 978 q 157 1031 194 1031 q 118 978 118 1031 l 118 553 q 157 499 118 499 q 194 553 194 499 m 303 461 l 201 461 l 199 469 q 158 460 179 461 q 83 492 114 458 q 49 589 49 526 l 49 942 q 82 1038 49 1001 q 156 1069 113 1069 q 207 1056 183 1069 l 303 1056 l 303 1015 q 267 978 267 1013 l 267 540 q 303 501 267 506 l 303 461 z "},"«":{"ha":503,"x_min":49,"x_max":454,"o":"m 215 536 l 454 825 l 454 753 l 282 536 l 454 304 l 454 231 l 215 536 m 49 536 l 288 825 l 288 753 l 115 536 l 288 304 l 288 231 l 49 536 z "},"­":{"ha":406,"x_min":49,"x_max":357,"o":"m 357 503 l 49 503 l 49 553 l 357 553 l 357 503 z "},"®":{"ha":701,"x_min":49,"x_max":653,"o":"m 350 451 q 137 540 225 451 q 49 753 49 628 q 136 967 49 879 q 350 1056 224 1056 q 565 967 476 1056 q 653 753 653 879 q 565 539 653 626 q 350 451 476 451 m 350 1017 q 163 940 239 1017 q 88 753 88 864 q 164 567 88 643 q 350 490 240 490 q 538 566 461 490 q 614 753 614 642 q 538 940 614 864 q 350 1017 461 1017 m 467 583 l 385 718 l 261 718 l 261 582 l 204 582 l 204 925 l 368 925 q 526 821 526 925 q 444 725 526 749 l 531 583 l 467 583 m 368 871 l 263 871 l 263 774 l 363 774 q 469 825 469 774 q 368 871 469 871 z "},"²":{"ha":231,"x_min":49,"x_max":182,"o":"m 182 939 q 154 857 182 901 q 110 782 115 794 q 94 685 94 742 q 111 700 97 692 q 143 696 121 697 q 158 735 158 697 l 158 753 l 182 753 l 182 672 q 163 619 182 629 q 129 628 149 613 q 111 638 118 638 q 104 618 103 638 l 71 618 q 58 699 58 658 q 92 828 58 769 q 133 940 132 896 q 132 989 135 965 q 114 1025 128 1026 q 93 990 94 1025 q 103 946 104 972 q 78 910 103 910 q 53 929 61 910 q 49 968 49 944 q 67 1029 49 1003 q 119 1056 86 1056 q 182 939 185 1056 z "},"³":{"ha":253,"x_min":49,"x_max":204,"o":"m 204 715 q 181 648 204 672 q 126 622 158 624 l 126 622 l 126 622 l 126 622 q 125 622 125 622 l 124 622 l 124 622 l 124 622 l 124 622 q 122 622 124 622 l 122 622 q 67 657 89 624 q 49 711 49 685 q 53 749 49 735 q 81 769 61 769 q 107 735 107 769 q 96 689 107 708 q 124 653 97 653 q 153 690 153 653 l 153 789 q 122 828 153 829 l 115 828 l 115 861 l 122 861 q 153 899 153 861 l 153 989 q 124 1026 153 1028 q 96 990 97 1026 q 107 946 107 972 q 81 910 107 910 q 54 929 61 910 q 49 968 49 943 q 72 1035 49 1010 q 125 1056 94 1056 q 181 1031 157 1056 q 204 963 204 1007 l 204 924 q 169 844 204 871 q 204 765 204 819 l 204 715 z "},"´":{"ha":269,"x_min":49,"x_max":221,"o":"m 221 1307 l 82 1111 l 49 1111 l 149 1307 l 221 1307 z "},"·":{"ha":210,"x_min":49,"x_max":161,"o":"m 161 528 q 144 489 161 506 q 104 472 128 472 q 65 489 82 472 q 49 528 49 506 q 65 568 49 551 q 104 585 82 585 q 144 568 128 585 q 161 528 161 551 z "},"¸":{"ha":269,"x_min":49,"x_max":221,"o":"m 221 36 l 82 -160 l 49 -160 l 149 36 l 221 36 z "},"¹":{"ha":192,"x_min":49,"x_max":143,"o":"m 143 619 l 49 619 l 49 649 q 72 676 72 653 l 72 993 l 49 993 l 49 1031 q 90 1056 74 1036 l 118 1056 l 118 676 q 143 649 118 651 l 143 619 z "},"º":{"ha":313,"x_min":49,"x_max":264,"o":"m 264 589 q 233 495 264 529 q 158 460 201 461 q 83 492 114 458 q 49 589 49 526 l 49 942 q 82 1038 49 1001 q 156 1069 113 1069 q 231 1038 200 1069 q 264 942 264 1001 l 264 942 l 264 589 m 194 553 l 194 978 q 157 1031 194 1031 q 118 978 118 1031 l 118 553 q 157 499 118 499 q 194 553 194 499 z "},"»":{"ha":503,"x_min":49,"x_max":454,"o":"m 288 536 l 49 231 l 49 304 l 221 536 l 49 753 l 49 825 l 288 536 m 454 536 l 215 231 l 215 304 l 388 536 l 215 753 l 215 825 l 454 536 z "},"¼":{"ha":551,"x_min":49,"x_max":503,"o":"m 175 474 l 49 474 l 49 513 q 81 550 81 518 l 81 972 l 49 972 l 49 1022 q 104 1056 82 1029 l 142 1056 l 140 550 q 175 513 140 515 l 175 474 m 453 1056 l 126 0 l 90 0 l 417 1056 l 453 1056 m 503 176 l 471 176 l 471 76 q 496 39 472 42 l 496 0 l 382 0 l 382 39 q 404 76 404 43 l 404 176 l 303 176 l 303 233 l 403 582 l 468 582 l 471 243 l 503 243 l 503 176 m 404 243 l 404 433 l 349 243 l 404 243 z "},"½":{"ha":593,"x_min":49,"x_max":542,"o":"m 175 474 l 49 474 l 49 513 q 81 550 81 518 l 81 972 l 49 972 l 49 1022 q 104 1056 82 1029 l 142 1056 l 140 550 q 175 513 140 515 l 175 474 m 453 1056 l 126 0 l 90 0 l 417 1056 l 453 1056 m 542 428 q 504 319 542 378 q 446 219 453 236 q 424 89 424 165 q 446 110 428 97 q 469 108 456 113 q 490 104 483 104 q 510 156 510 107 l 510 181 l 542 181 l 542 72 q 517 3 542 15 q 471 14 496 -7 q 447 26 456 26 q 438 0 435 26 l 393 0 q 376 108 376 53 q 421 279 376 203 q 478 431 475 371 q 475 494 479 463 q 450 543 469 544 q 422 496 425 543 q 438 436 438 472 q 403 389 438 390 q 369 418 379 389 q 364 467 364 436 q 389 549 364 514 q 457 583 414 585 q 542 428 544 583 z "},"¾":{"ha":617,"x_min":49,"x_max":568,"o":"m 256 603 q 225 512 256 544 q 151 478 194 479 l 151 478 l 151 478 l 151 478 q 150 478 151 478 l 150 478 l 150 478 l 150 478 l 150 478 q 147 478 149 478 l 147 478 q 74 524 103 479 q 49 597 49 560 q 56 647 49 628 q 90 675 65 675 q 126 628 126 674 q 111 568 126 592 q 149 518 113 518 q 188 568 188 518 l 188 700 q 147 753 188 753 l 136 753 l 136 797 l 147 796 q 188 846 188 796 l 188 967 q 149 1018 188 1018 q 111 968 113 1017 q 126 908 126 944 q 90 861 126 861 q 56 888 65 861 q 49 939 49 907 q 79 1025 49 994 q 151 1056 110 1056 q 224 1023 193 1056 q 256 932 256 990 l 256 881 q 210 775 256 810 q 256 669 256 740 l 256 603 m 518 1056 l 192 0 l 156 0 l 482 1056 l 518 1056 m 568 175 l 536 176 l 536 76 q 560 39 536 42 l 560 0 l 447 0 l 447 39 q 469 76 469 43 l 469 176 l 367 176 l 368 233 l 468 582 l 533 582 l 535 243 l 567 243 l 568 175 m 469 243 l 469 433 l 414 243 l 469 243 z "},"¿":{"ha":425,"x_min":53,"x_max":375,"o":"m 285 960 q 264 892 285 919 q 214 864 243 864 q 164 892 185 864 q 143 960 143 919 q 164 1028 143 1000 q 214 1056 185 1056 q 264 1028 243 1056 q 285 960 285 1000 m 375 211 q 332 67 375 126 q 206 0 285 -1 q 53 282 49 1 q 126 525 54 357 q 192 806 196 688 l 236 806 q 244 697 244 750 q 210 481 244 607 q 169 278 172 347 q 174 163 167 218 q 218 72 185 72 q 256 106 242 74 q 268 158 267 132 q 243 265 243 201 q 304 351 243 350 q 365 300 347 351 q 375 211 376 267 z "},"À":{"ha":436,"x_min":21,"x_max":415,"o":"m 415 0 l 211 0 l 211 71 q 251 93 238 74 q 261 139 265 113 l 250 218 l 151 218 l 142 139 q 188 71 133 76 l 188 0 l 21 0 l 21 72 q 79 139 72 79 l 182 1056 l 242 1056 l 361 139 q 415 72 369 79 l 415 0 m 242 285 l 199 599 l 160 285 l 242 285 m 304 1111 l 269 1111 l 132 1307 l 203 1307 l 304 1111 z "},"Á":{"ha":436,"x_min":21,"x_max":415,"o":"m 415 0 l 211 0 l 211 71 q 251 93 238 74 q 261 139 265 113 l 250 218 l 151 218 l 142 139 q 188 71 133 76 l 188 0 l 21 0 l 21 72 q 79 139 72 79 l 182 1056 l 242 1056 l 361 139 q 415 72 369 79 l 415 0 m 242 285 l 199 599 l 160 285 l 242 285 m 304 1307 l 165 1111 l 132 1111 l 232 1307 l 304 1307 z "},"Â":{"ha":436,"x_min":21,"x_max":415,"o":"m 415 0 l 211 0 l 211 71 q 251 93 238 74 q 261 139 265 113 l 250 218 l 151 218 l 142 139 q 188 71 133 76 l 188 0 l 21 0 l 21 72 q 79 139 72 79 l 182 1056 l 242 1056 l 361 139 q 415 72 369 79 l 415 0 m 242 285 l 199 599 l 160 285 l 242 285 m 347 1111 l 311 1111 l 204 1221 l 97 1111 l 63 1111 l 204 1313 l 347 1111 z "},"Ã":{"ha":436,"x_min":21,"x_max":415,"o":"m 415 0 l 211 0 l 211 71 q 251 93 238 74 q 261 139 265 113 l 250 218 l 151 218 l 142 139 q 188 71 133 76 l 188 0 l 21 0 l 21 72 q 79 139 72 79 l 182 1056 l 242 1056 l 361 139 q 415 72 369 79 l 415 0 m 242 285 l 199 599 l 160 285 l 242 285 m 365 1188 q 276 1110 339 1110 q 197 1128 249 1110 q 118 1147 144 1147 q 75 1115 82 1147 l 49 1128 q 142 1203 75 1203 q 219 1185 168 1203 q 296 1168 271 1168 q 340 1200 329 1168 l 365 1188 z "},"Ä":{"ha":436,"x_min":21,"x_max":415,"o":"m 415 0 l 211 0 l 211 71 q 251 93 238 74 q 261 139 265 113 l 250 218 l 151 218 l 142 139 q 188 71 133 76 l 188 0 l 21 0 l 21 72 q 79 139 72 79 l 182 1056 l 242 1056 l 361 139 q 415 72 369 79 l 415 0 m 242 285 l 199 599 l 160 285 l 242 285 m 360 1167 q 343 1128 360 1144 q 303 1111 326 1111 q 264 1128 281 1111 q 247 1167 247 1144 q 264 1207 247 1190 q 303 1224 281 1224 q 343 1207 326 1224 q 360 1167 360 1190 m 175 1167 q 158 1128 175 1144 q 118 1111 142 1111 q 79 1128 96 1111 q 63 1167 63 1144 q 79 1207 63 1190 q 118 1224 96 1224 q 158 1207 142 1224 q 175 1167 175 1190 z "},"Å":{"ha":436,"x_min":21,"x_max":415,"o":"m 242 285 l 199 599 l 160 285 l 242 285 m 294 1135 q 239 1056 294 1076 l 242 1056 l 361 139 q 415 72 369 79 l 415 0 l 211 0 l 211 71 q 251 93 238 74 q 261 139 265 113 l 250 218 l 151 218 l 142 139 q 188 71 133 76 l 188 0 l 21 0 l 21 72 q 79 139 72 79 l 182 1056 q 125 1135 125 1075 q 150 1194 125 1169 q 210 1219 175 1219 q 269 1194 244 1219 q 294 1135 294 1169 m 261 1135 q 246 1171 261 1156 q 210 1186 231 1186 q 174 1171 189 1186 q 158 1135 158 1156 q 174 1099 158 1114 q 210 1083 189 1083 q 246 1099 231 1083 q 261 1135 261 1114 z "},"Æ":{"ha":685,"x_min":21,"x_max":636,"o":"m 636 0 l 265 0 l 265 72 q 324 139 324 81 l 324 218 l 151 218 l 142 139 q 188 71 133 76 l 188 0 l 21 0 l 21 72 q 79 139 69 79 l 219 1056 l 636 1056 l 636 676 l 583 676 q 581 854 585 818 q 500 985 564 983 q 452 965 472 986 q 432 917 432 943 l 432 583 l 457 583 q 479 625 482 583 l 478 665 l 543 665 l 543 404 l 485 404 l 485 442 q 458 485 485 485 l 432 485 l 432 139 q 451 93 432 115 q 494 71 469 71 q 575 201 557 68 q 583 379 585 260 l 636 379 l 636 0 m 324 285 l 324 917 q 293 976 324 976 q 258 918 267 976 l 160 285 l 324 285 z "},"Ç":{"ha":471,"x_min":49,"x_max":422,"o":"m 279 -11 l 175 -160 l 140 -160 l 217 -12 q 92 65 138 -1 q 49 215 49 128 l 49 842 q 99 999 49 933 q 240 1069 153 1071 q 328 1044 285 1068 q 353 1054 350 1032 l 422 1054 l 422 668 l 347 668 l 346 890 q 317 972 346 940 q 254 1001 290 1000 q 197 978 219 1001 q 171 907 171 953 l 171 164 q 258 71 171 68 q 319 96 292 71 q 346 158 346 121 l 346 392 l 421 392 l 421 156 q 381 44 421 89 q 279 -11 340 0 z "},"È":{"ha":468,"x_min":49,"x_max":419,"o":"m 419 0 l 49 0 l 49 72 q 107 139 107 81 l 107 917 q 49 983 107 975 l 49 1056 l 419 1056 l 419 676 l 367 676 q 364 854 368 818 q 283 985 347 983 q 235 965 256 986 q 215 917 215 943 l 215 583 l 240 583 q 263 625 265 583 l 261 665 l 326 665 l 326 404 l 268 404 l 268 442 q 242 485 268 485 l 215 485 l 215 139 q 234 93 215 115 q 278 71 253 71 q 360 201 340 68 q 367 379 368 260 l 419 379 l 419 0 m 318 1111 l 283 1111 l 146 1307 l 217 1307 l 318 1111 z "},"É":{"ha":468,"x_min":49,"x_max":419,"o":"m 419 0 l 49 0 l 49 72 q 107 139 107 81 l 107 917 q 49 983 107 975 l 49 1056 l 419 1056 l 419 676 l 367 676 q 364 854 368 818 q 283 985 347 983 q 235 965 256 986 q 215 917 215 943 l 215 583 l 240 583 q 263 625 265 583 l 261 665 l 326 665 l 326 404 l 268 404 l 268 442 q 242 485 268 485 l 215 485 l 215 139 q 234 93 215 115 q 278 71 253 71 q 360 201 340 68 q 367 379 368 260 l 419 379 l 419 0 m 318 1307 l 179 1111 l 146 1111 l 246 1307 l 318 1307 z "},"Ê":{"ha":468,"x_min":49,"x_max":419,"o":"m 419 0 l 49 0 l 49 72 q 107 139 107 81 l 107 917 q 49 983 107 975 l 49 1056 l 419 1056 l 419 676 l 367 676 q 364 854 368 818 q 283 985 347 983 q 235 965 256 986 q 215 917 215 943 l 215 583 l 240 583 q 263 625 265 583 l 261 665 l 326 665 l 326 404 l 268 404 l 268 442 q 242 485 268 485 l 215 485 l 215 139 q 234 93 215 115 q 278 71 253 71 q 360 201 340 68 q 367 379 368 260 l 419 379 l 419 0 m 375 1111 l 339 1111 l 232 1221 l 125 1111 l 90 1111 l 232 1313 l 375 1111 z "},"Ë":{"ha":468,"x_min":49,"x_max":419,"o":"m 419 0 l 49 0 l 49 72 q 107 139 107 81 l 107 917 q 49 983 107 975 l 49 1056 l 419 1056 l 419 676 l 367 676 q 364 854 368 818 q 283 985 347 983 q 235 965 256 986 q 215 917 215 943 l 215 583 l 240 583 q 263 625 265 583 l 261 665 l 326 665 l 326 404 l 268 404 l 268 442 q 242 485 268 485 l 215 485 l 215 139 q 234 93 215 115 q 278 71 253 71 q 360 201 340 68 q 367 379 368 260 l 419 379 l 419 0 m 388 1167 q 371 1128 388 1144 q 331 1111 354 1111 q 292 1128 308 1111 q 275 1167 275 1144 q 292 1207 275 1190 q 331 1224 308 1224 q 371 1207 354 1224 q 388 1167 388 1190 m 203 1167 q 186 1128 203 1144 q 146 1111 169 1111 q 107 1128 124 1111 q 90 1167 90 1144 q 107 1207 90 1190 q 146 1224 124 1224 q 186 1207 169 1224 q 203 1167 203 1190 z "},"Ì":{"ha":326,"x_min":49,"x_max":278,"o":"m 278 0 l 49 0 l 49 72 q 107 139 107 81 l 107 917 q 49 983 107 975 l 49 1056 l 278 1056 l 278 985 q 233 963 251 982 q 215 917 215 943 l 215 139 q 233 93 215 113 q 278 71 251 74 l 278 0 m 249 1111 l 214 1111 l 76 1307 l 147 1307 l 249 1111 z "},"Í":{"ha":326,"x_min":49,"x_max":278,"o":"m 278 0 l 49 0 l 49 72 q 107 139 107 81 l 107 917 q 49 983 107 975 l 49 1056 l 278 1056 l 278 985 q 233 963 251 982 q 215 917 215 943 l 215 139 q 233 93 215 113 q 278 71 251 74 l 278 0 m 249 1307 l 110 1111 l 76 1111 l 176 1307 l 249 1307 z "},"Î":{"ha":326,"x_min":22,"x_max":307,"o":"m 278 0 l 49 0 l 49 72 q 107 139 107 81 l 107 917 q 49 983 107 975 l 49 1056 l 278 1056 l 278 985 q 233 963 251 982 q 215 917 215 943 l 215 139 q 233 93 215 113 q 278 71 251 74 l 278 0 m 307 1111 l 271 1111 l 164 1221 l 57 1111 l 22 1111 l 164 1313 l 307 1111 z "},"Ï":{"ha":339,"x_min":22,"x_max":319,"o":"m 292 0 l 63 0 l 63 72 q 121 139 121 81 l 121 917 q 63 983 121 975 l 63 1056 l 292 1056 l 292 985 q 247 963 265 982 q 229 917 229 943 l 229 139 q 247 93 229 113 q 292 71 265 74 l 292 0 m 319 1167 q 303 1128 319 1144 q 263 1111 286 1111 q 224 1128 240 1111 q 207 1167 207 1144 q 224 1207 207 1190 q 263 1224 240 1224 q 303 1207 286 1224 q 319 1167 319 1190 m 135 1167 q 118 1128 135 1144 q 78 1111 101 1111 q 39 1128 56 1111 q 22 1167 22 1144 q 39 1207 22 1190 q 78 1224 56 1224 q 118 1207 101 1224 q 135 1167 135 1190 z "},"Ð":{"ha":493,"x_min":21,"x_max":444,"o":"m 444 229 q 396 72 444 136 q 250 0 342 0 l 21 0 l 21 72 q 79 139 79 81 l 79 479 l 21 479 l 21 576 l 79 576 l 79 917 q 21 983 79 975 l 21 1056 l 225 1056 q 385 991 325 1056 q 444 829 444 926 l 444 229 m 322 167 l 322 894 q 301 961 322 936 q 251 986 279 986 q 188 917 188 986 l 188 576 l 253 576 l 253 479 l 188 479 l 188 139 q 249 71 188 67 q 300 98 278 72 q 322 167 322 124 z "},"Ñ":{"ha":579,"x_min":49,"x_max":558,"o":"m 558 985 q 514 963 532 982 q 496 917 496 943 l 496 0 l 375 0 l 186 814 l 186 139 q 204 93 186 113 q 249 71 222 74 l 249 0 l 49 0 l 49 72 q 107 139 107 81 l 107 917 q 49 983 107 975 l 49 1056 l 249 1056 l 417 439 l 417 917 q 358 983 417 975 l 358 1056 l 558 1056 l 558 985 m 463 1188 q 374 1110 436 1110 q 294 1128 346 1110 q 215 1147 242 1147 q 172 1115 179 1147 l 146 1128 q 239 1203 172 1203 q 317 1185 265 1203 q 393 1168 368 1168 q 438 1200 426 1168 l 463 1188 z "},"Ò":{"ha":481,"x_min":49,"x_max":432,"o":"m 432 215 q 374 44 432 108 q 244 -14 321 -12 q 110 42 165 -15 q 49 215 49 106 l 49 842 q 108 1013 49 950 q 240 1069 163 1069 q 371 1013 318 1069 q 432 842 432 949 l 432 842 l 432 215 m 308 151 l 308 907 q 288 974 308 949 q 240 1000 268 1000 q 192 974 213 1000 q 171 907 171 949 l 171 151 q 192 82 171 108 q 240 56 213 56 q 288 82 268 56 q 308 151 308 108 m 332 1111 l 297 1111 l 160 1307 l 231 1307 l 332 1111 z "},"Ó":{"ha":481,"x_min":49,"x_max":432,"o":"m 432 215 q 374 44 432 108 q 244 -14 321 -12 q 110 42 165 -15 q 49 215 49 106 l 49 842 q 108 1013 49 950 q 240 1069 163 1069 q 371 1013 318 1069 q 432 842 432 949 l 432 842 l 432 215 m 308 151 l 308 907 q 288 974 308 949 q 240 1000 268 1000 q 192 974 213 1000 q 171 907 171 949 l 171 151 q 192 82 171 108 q 240 56 213 56 q 288 82 268 56 q 308 151 308 108 m 318 1307 l 179 1111 l 146 1111 l 246 1307 l 318 1307 z "},"Ô":{"ha":481,"x_min":49,"x_max":432,"o":"m 432 215 q 374 44 432 108 q 244 -14 321 -12 q 110 42 165 -15 q 49 215 49 106 l 49 842 q 108 1013 49 950 q 240 1069 163 1069 q 371 1013 318 1069 q 432 842 432 949 l 432 842 l 432 215 m 308 151 l 308 907 q 288 974 308 949 q 240 1000 268 1000 q 192 974 213 1000 q 171 907 171 949 l 171 151 q 192 82 171 108 q 240 56 213 56 q 288 82 268 56 q 308 151 308 108 m 375 1111 l 339 1111 l 232 1221 l 125 1111 l 90 1111 l 232 1313 l 375 1111 z "},"Õ":{"ha":481,"x_min":49,"x_max":432,"o":"m 432 215 q 374 44 432 108 q 244 -14 321 -12 q 110 42 165 -15 q 49 215 49 106 l 49 842 q 108 1013 49 950 q 240 1069 163 1069 q 371 1013 318 1069 q 432 842 432 949 l 432 842 l 432 215 m 308 151 l 308 907 q 288 974 308 949 q 240 1000 268 1000 q 192 974 213 1000 q 171 907 171 949 l 171 151 q 192 82 171 108 q 240 56 213 56 q 288 82 268 56 q 308 151 308 108 m 393 1188 q 304 1110 367 1110 q 224 1128 276 1110 q 146 1147 172 1147 q 103 1115 110 1147 l 76 1128 q 169 1203 103 1203 q 247 1185 196 1203 q 324 1168 299 1168 q 368 1200 357 1168 l 393 1188 z "},"Ö":{"ha":481,"x_min":49,"x_max":432,"o":"m 432 215 q 374 44 432 108 q 244 -14 321 -12 q 110 42 165 -15 q 49 215 49 106 l 49 842 q 108 1013 49 950 q 240 1069 163 1069 q 371 1013 318 1069 q 432 842 432 949 l 432 842 l 432 215 m 308 151 l 308 907 q 288 974 308 949 q 240 1000 268 1000 q 192 974 213 1000 q 171 907 171 949 l 171 151 q 192 82 171 108 q 240 56 213 56 q 288 82 268 56 q 308 151 308 108 m 388 1167 q 371 1128 388 1144 q 331 1111 354 1111 q 292 1128 308 1111 q 275 1167 275 1144 q 292 1207 275 1190 q 331 1224 308 1224 q 371 1207 354 1224 q 388 1167 388 1190 m 203 1167 q 186 1128 203 1144 q 146 1111 169 1111 q 107 1128 124 1111 q 90 1167 90 1144 q 107 1207 90 1190 q 146 1224 124 1224 q 186 1207 169 1224 q 203 1167 203 1190 z "},"×":{"ha":351,"x_min":49,"x_max":303,"o":"m 85 654 l 175 564 l 267 654 l 303 619 l 211 528 l 303 436 l 267 400 l 175 492 l 85 400 l 49 436 l 140 528 l 49 619 l 85 654 z "},"Ø":{"ha":481,"x_min":49,"x_max":432,"o":"m 432 215 q 374 44 432 108 q 244 -14 321 -12 q 142 15 188 -15 l 135 -12 l 99 -12 l 111 40 q 49 215 49 104 l 49 842 q 108 1013 49 950 q 240 1069 163 1069 q 339 1040 294 1069 l 346 1068 l 382 1068 l 369 1015 q 432 842 432 951 l 432 842 l 432 215 m 308 911 q 287 976 307 951 q 240 1000 267 1000 q 192 974 213 1000 q 171 907 171 949 l 171 297 l 308 911 m 308 151 l 308 758 l 171 144 q 194 80 174 104 q 240 56 214 56 q 288 82 268 56 q 308 151 308 108 z "},"Ù":{"ha":492,"x_min":21,"x_max":471,"o":"m 471 985 q 426 962 444 982 q 408 915 408 942 l 408 225 q 267 0 408 0 q 129 57 181 0 q 78 224 78 114 l 79 915 q 21 983 79 975 l 21 1056 l 251 1056 l 251 985 q 207 962 225 982 q 189 915 189 942 l 188 224 q 196 125 188 153 q 267 68 213 67 q 321 128 308 69 q 328 225 328 157 l 328 915 q 269 983 328 975 l 269 1056 l 471 1056 l 471 985 m 332 1111 l 297 1111 l 160 1307 l 231 1307 l 332 1111 z "},"Ú":{"ha":492,"x_min":21,"x_max":471,"o":"m 471 985 q 426 962 444 982 q 408 915 408 942 l 408 225 q 267 0 408 0 q 129 57 181 0 q 78 224 78 114 l 79 915 q 21 983 79 975 l 21 1056 l 251 1056 l 251 985 q 207 962 225 982 q 189 915 189 942 l 188 224 q 196 125 188 153 q 267 68 213 67 q 321 128 308 69 q 328 225 328 157 l 328 915 q 269 983 328 975 l 269 1056 l 471 1056 l 471 985 m 346 1307 l 207 1111 l 174 1111 l 274 1307 l 346 1307 z "},"Û":{"ha":492,"x_min":21,"x_max":471,"o":"m 471 985 q 426 962 444 982 q 408 915 408 942 l 408 225 q 267 0 408 0 q 129 57 181 0 q 78 224 78 114 l 79 915 q 21 983 79 975 l 21 1056 l 251 1056 l 251 985 q 207 962 225 982 q 189 915 189 942 l 188 224 q 196 125 188 153 q 267 68 213 67 q 321 128 308 69 q 328 225 328 157 l 328 915 q 269 983 328 975 l 269 1056 l 471 1056 l 471 985 m 389 1111 l 353 1111 l 246 1221 l 139 1111 l 104 1111 l 246 1313 l 389 1111 z "},"Ü":{"ha":492,"x_min":21,"x_max":471,"o":"m 471 985 q 426 962 444 982 q 408 915 408 942 l 408 225 q 267 0 408 0 q 129 57 181 0 q 78 224 78 114 l 79 915 q 21 983 79 975 l 21 1056 l 251 1056 l 251 985 q 207 962 225 982 q 189 915 189 942 l 188 224 q 196 125 188 153 q 267 68 213 67 q 321 128 308 69 q 328 225 328 157 l 328 915 q 269 983 328 975 l 269 1056 l 471 1056 l 471 985 m 401 1167 q 385 1128 401 1144 q 344 1111 368 1111 q 306 1128 322 1111 q 289 1167 289 1144 q 306 1207 289 1190 q 344 1224 322 1224 q 385 1207 368 1224 q 401 1167 401 1190 m 217 1167 q 200 1128 217 1144 q 160 1111 183 1111 q 121 1128 138 1111 q 104 1167 104 1144 q 121 1207 104 1190 q 160 1224 138 1224 q 200 1207 183 1224 q 217 1167 217 1190 z "},"Ý":{"ha":499,"x_min":21,"x_max":478,"o":"m 478 985 q 400 897 428 979 l 299 578 l 299 168 q 349 71 299 76 l 349 0 l 113 0 l 113 72 q 158 110 149 76 q 165 175 165 126 l 168 576 l 89 893 q 21 983 68 976 l 21 1056 l 263 1056 l 263 985 q 210 928 210 979 q 214 897 210 914 l 261 721 l 324 903 q 328 928 328 915 q 278 983 328 976 l 278 1056 l 478 1056 l 478 985 m 346 1307 l 207 1111 l 174 1111 l 274 1307 l 346 1307 z "},"Þ":{"ha":515,"x_min":49,"x_max":494,"o":"m 494 533 q 451 338 494 417 q 288 243 397 236 q 215 267 249 246 l 215 139 q 233 93 215 113 q 278 71 251 74 l 278 0 l 49 0 l 49 72 q 107 139 107 81 l 107 917 q 49 983 107 975 l 49 1056 l 278 1056 l 278 985 q 233 963 251 982 q 215 917 215 943 l 215 790 q 285 813 238 813 q 494 533 492 818 m 381 533 q 286 743 382 740 q 238 722 258 743 q 217 674 217 701 l 217 432 q 219 375 217 386 q 283 329 232 328 q 381 533 378 332 z "},"ß":{"ha":489,"x_min":21,"x_max":440,"o":"m 440 228 q 382 58 440 122 q 253 0 329 1 l 253 0 l 253 0 l 253 0 l 251 0 l 251 74 q 317 165 317 78 l 317 407 q 300 469 317 442 q 244 503 279 503 l 225 503 l 225 582 l 244 582 q 300 611 279 582 q 317 672 317 636 l 317 911 q 298 969 317 947 q 253 990 279 990 q 188 921 188 990 l 188 140 q 161 50 188 93 q 81 0 129 0 l 21 0 l 21 72 q 79 142 79 82 l 79 913 q 126 1016 79 976 q 251 1056 172 1056 q 381 999 328 1056 q 440 831 440 936 l 440 735 q 357 542 440 606 q 440 350 440 479 l 440 228 z "},"à":{"ha":436,"x_min":21,"x_max":415,"o":"m 415 0 l 211 0 l 211 71 q 251 93 238 74 q 261 139 265 113 l 250 218 l 151 218 l 142 139 q 188 71 133 76 l 188 0 l 21 0 l 21 72 q 79 139 72 79 l 182 1056 l 242 1056 l 361 139 q 415 72 369 79 l 415 0 m 242 285 l 199 599 l 160 285 l 242 285 m 304 1111 l 269 1111 l 132 1307 l 203 1307 l 304 1111 z "},"á":{"ha":436,"x_min":21,"x_max":415,"o":"m 415 0 l 211 0 l 211 71 q 251 93 238 74 q 261 139 265 113 l 250 218 l 151 218 l 142 139 q 188 71 133 76 l 188 0 l 21 0 l 21 72 q 79 139 72 79 l 182 1056 l 242 1056 l 361 139 q 415 72 369 79 l 415 0 m 242 285 l 199 599 l 160 285 l 242 285 m 304 1307 l 165 1111 l 132 1111 l 232 1307 l 304 1307 z "},"â":{"ha":436,"x_min":21,"x_max":415,"o":"m 415 0 l 211 0 l 211 71 q 251 93 238 74 q 261 139 265 113 l 250 218 l 151 218 l 142 139 q 188 71 133 76 l 188 0 l 21 0 l 21 72 q 79 139 72 79 l 182 1056 l 242 1056 l 361 139 q 415 72 369 79 l 415 0 m 242 285 l 199 599 l 160 285 l 242 285 m 347 1111 l 311 1111 l 204 1221 l 97 1111 l 63 1111 l 204 1313 l 347 1111 z "},"ã":{"ha":436,"x_min":21,"x_max":415,"o":"m 415 0 l 211 0 l 211 71 q 251 93 238 74 q 261 139 265 113 l 250 218 l 151 218 l 142 139 q 188 71 133 76 l 188 0 l 21 0 l 21 72 q 79 139 72 79 l 182 1056 l 242 1056 l 361 139 q 415 72 369 79 l 415 0 m 242 285 l 199 599 l 160 285 l 242 285 m 365 1188 q 276 1110 339 1110 q 197 1128 249 1110 q 118 1147 144 1147 q 75 1115 82 1147 l 49 1128 q 142 1203 75 1203 q 219 1185 168 1203 q 296 1168 271 1168 q 340 1200 329 1168 l 365 1188 z "},"ä":{"ha":436,"x_min":21,"x_max":415,"o":"m 415 0 l 211 0 l 211 71 q 251 93 238 74 q 261 139 265 113 l 250 218 l 151 218 l 142 139 q 188 71 133 76 l 188 0 l 21 0 l 21 72 q 79 139 72 79 l 182 1056 l 242 1056 l 361 139 q 415 72 369 79 l 415 0 m 242 285 l 199 599 l 160 285 l 242 285 m 360 1167 q 343 1128 360 1144 q 303 1111 326 1111 q 264 1128 281 1111 q 247 1167 247 1144 q 264 1207 247 1190 q 303 1224 281 1224 q 343 1207 326 1224 q 360 1167 360 1190 m 175 1167 q 158 1128 175 1144 q 118 1111 142 1111 q 79 1128 96 1111 q 63 1167 63 1144 q 79 1207 63 1190 q 118 1224 96 1224 q 158 1207 142 1224 q 175 1167 175 1190 z "},"å":{"ha":436,"x_min":21,"x_max":415,"o":"m 242 285 l 199 599 l 160 285 l 242 285 m 294 1135 q 239 1056 294 1076 l 242 1056 l 361 139 q 415 72 369 79 l 415 0 l 211 0 l 211 71 q 251 93 238 74 q 261 139 265 113 l 250 218 l 151 218 l 142 139 q 188 71 133 76 l 188 0 l 21 0 l 21 72 q 79 139 72 79 l 182 1056 q 125 1135 125 1075 q 150 1194 125 1169 q 210 1219 175 1219 q 269 1194 244 1219 q 294 1135 294 1169 m 261 1135 q 246 1171 261 1156 q 210 1186 231 1186 q 174 1171 189 1186 q 158 1135 158 1156 q 174 1099 158 1114 q 210 1083 189 1083 q 246 1099 231 1083 q 261 1135 261 1114 z "},"æ":{"ha":685,"x_min":21,"x_max":636,"o":"m 636 0 l 265 0 l 265 72 q 324 139 324 81 l 324 218 l 151 218 l 142 139 q 188 71 133 76 l 188 0 l 21 0 l 21 72 q 79 139 69 79 l 219 1056 l 636 1056 l 636 676 l 583 676 q 581 854 585 818 q 500 985 564 983 q 452 965 472 986 q 432 917 432 943 l 432 583 l 457 583 q 479 625 482 583 l 478 665 l 543 665 l 543 404 l 485 404 l 485 442 q 458 485 485 485 l 432 485 l 432 139 q 451 93 432 115 q 494 71 469 71 q 575 201 557 68 q 583 379 585 260 l 636 379 l 636 0 m 324 285 l 324 917 q 293 976 324 976 q 258 918 267 976 l 160 285 l 324 285 z "},"ç":{"ha":471,"x_min":49,"x_max":422,"o":"m 279 -11 l 175 -160 l 140 -160 l 217 -12 q 92 65 138 -1 q 49 215 49 128 l 49 842 q 99 999 49 933 q 240 1069 153 1071 q 328 1044 285 1068 q 353 1054 350 1032 l 422 1054 l 422 668 l 347 668 l 346 890 q 317 972 346 940 q 254 1001 290 1000 q 197 978 219 1001 q 171 907 171 953 l 171 164 q 258 71 171 68 q 319 96 292 71 q 346 158 346 121 l 346 392 l 421 392 l 421 156 q 381 44 421 89 q 279 -11 340 0 z "},"è":{"ha":468,"x_min":49,"x_max":419,"o":"m 419 0 l 49 0 l 49 72 q 107 139 107 81 l 107 917 q 49 983 107 975 l 49 1056 l 419 1056 l 419 676 l 367 676 q 364 854 368 818 q 283 985 347 983 q 235 965 256 986 q 215 917 215 943 l 215 583 l 240 583 q 263 625 265 583 l 261 665 l 326 665 l 326 404 l 268 404 l 268 442 q 242 485 268 485 l 215 485 l 215 139 q 234 93 215 115 q 278 71 253 71 q 360 201 340 68 q 367 379 368 260 l 419 379 l 419 0 m 318 1111 l 283 1111 l 146 1307 l 217 1307 l 318 1111 z "},"é":{"ha":468,"x_min":49,"x_max":419,"o":"m 419 0 l 49 0 l 49 72 q 107 139 107 81 l 107 917 q 49 983 107 975 l 49 1056 l 419 1056 l 419 676 l 367 676 q 364 854 368 818 q 283 985 347 983 q 235 965 256 986 q 215 917 215 943 l 215 583 l 240 583 q 263 625 265 583 l 261 665 l 326 665 l 326 404 l 268 404 l 268 442 q 242 485 268 485 l 215 485 l 215 139 q 234 93 215 115 q 278 71 253 71 q 360 201 340 68 q 367 379 368 260 l 419 379 l 419 0 m 318 1307 l 179 1111 l 146 1111 l 246 1307 l 318 1307 z "},"ê":{"ha":468,"x_min":49,"x_max":419,"o":"m 419 0 l 49 0 l 49 72 q 107 139 107 81 l 107 917 q 49 983 107 975 l 49 1056 l 419 1056 l 419 676 l 367 676 q 364 854 368 818 q 283 985 347 983 q 235 965 256 986 q 215 917 215 943 l 215 583 l 240 583 q 263 625 265 583 l 261 665 l 326 665 l 326 404 l 268 404 l 268 442 q 242 485 268 485 l 215 485 l 215 139 q 234 93 215 115 q 278 71 253 71 q 360 201 340 68 q 367 379 368 260 l 419 379 l 419 0 m 375 1111 l 339 1111 l 232 1221 l 125 1111 l 90 1111 l 232 1313 l 375 1111 z "},"ë":{"ha":468,"x_min":49,"x_max":419,"o":"m 419 0 l 49 0 l 49 72 q 107 139 107 81 l 107 917 q 49 983 107 975 l 49 1056 l 419 1056 l 419 676 l 367 676 q 364 854 368 818 q 283 985 347 983 q 235 965 256 986 q 215 917 215 943 l 215 583 l 240 583 q 263 625 265 583 l 261 665 l 326 665 l 326 404 l 268 404 l 268 442 q 242 485 268 485 l 215 485 l 215 139 q 234 93 215 115 q 278 71 253 71 q 360 201 340 68 q 367 379 368 260 l 419 379 l 419 0 m 388 1167 q 371 1128 388 1144 q 331 1111 354 1111 q 292 1128 308 1111 q 275 1167 275 1144 q 292 1207 275 1190 q 331 1224 308 1224 q 371 1207 354 1224 q 388 1167 388 1190 m 203 1167 q 186 1128 203 1144 q 146 1111 169 1111 q 107 1128 124 1111 q 90 1167 90 1144 q 107 1207 90 1190 q 146 1224 124 1224 q 186 1207 169 1224 q 203 1167 203 1190 z "},"ì":{"ha":326,"x_min":49,"x_max":278,"o":"m 278 0 l 49 0 l 49 72 q 107 139 107 81 l 107 917 q 49 983 107 975 l 49 1056 l 278 1056 l 278 985 q 233 963 251 982 q 215 917 215 943 l 215 139 q 233 93 215 113 q 278 71 251 74 l 278 0 m 249 1111 l 214 1111 l 76 1307 l 147 1307 l 249 1111 z "},"í":{"ha":326,"x_min":49,"x_max":278,"o":"m 278 0 l 49 0 l 49 72 q 107 139 107 81 l 107 917 q 49 983 107 975 l 49 1056 l 278 1056 l 278 985 q 233 963 251 982 q 215 917 215 943 l 215 139 q 233 93 215 113 q 278 71 251 74 l 278 0 m 249 1307 l 110 1111 l 76 1111 l 176 1307 l 249 1307 z "},"î":{"ha":326,"x_min":21,"x_max":306,"o":"m 278 0 l 49 0 l 49 72 q 107 139 107 81 l 107 917 q 49 983 107 975 l 49 1056 l 278 1056 l 278 985 q 233 963 251 982 q 215 917 215 943 l 215 139 q 233 93 215 113 q 278 71 251 74 l 278 0 m 306 1111 l 269 1111 l 163 1221 l 56 1111 l 21 1111 l 163 1313 l 306 1111 z "},"ï":{"ha":339,"x_min":21,"x_max":318,"o":"m 292 0 l 63 0 l 63 72 q 121 139 121 81 l 121 917 q 63 983 121 975 l 63 1056 l 292 1056 l 292 985 q 247 963 265 982 q 229 917 229 943 l 229 139 q 247 93 229 113 q 292 71 265 74 l 292 0 m 318 1167 q 301 1128 318 1144 q 261 1111 285 1111 q 222 1128 239 1111 q 206 1167 206 1144 q 222 1207 206 1190 q 261 1224 239 1224 q 301 1207 285 1224 q 318 1167 318 1190 m 133 1167 q 117 1128 133 1144 q 76 1111 100 1111 q 38 1128 54 1111 q 21 1167 21 1144 q 38 1207 21 1190 q 76 1224 54 1224 q 117 1207 100 1224 q 133 1167 133 1190 z "},"ð":{"ha":493,"x_min":21,"x_max":444,"o":"m 444 229 q 396 72 444 136 q 250 0 342 0 l 21 0 l 21 72 q 79 139 79 81 l 79 479 l 21 479 l 21 576 l 79 576 l 79 917 q 21 983 79 975 l 21 1056 l 225 1056 q 385 991 325 1056 q 444 829 444 926 l 444 229 m 322 167 l 322 894 q 301 961 322 936 q 251 986 279 986 q 188 917 188 986 l 188 576 l 253 576 l 253 479 l 188 479 l 188 139 q 249 71 188 67 q 300 98 278 72 q 322 167 322 124 z "},"ñ":{"ha":579,"x_min":49,"x_max":558,"o":"m 558 985 q 514 963 532 982 q 496 917 496 943 l 496 0 l 375 0 l 186 814 l 186 139 q 204 93 186 113 q 249 71 222 74 l 249 0 l 49 0 l 49 72 q 107 139 107 81 l 107 917 q 49 983 107 975 l 49 1056 l 249 1056 l 417 439 l 417 917 q 358 983 417 975 l 358 1056 l 558 1056 l 558 985 m 463 1188 q 374 1110 436 1110 q 294 1128 346 1110 q 215 1147 242 1147 q 172 1115 179 1147 l 146 1128 q 239 1203 172 1203 q 317 1185 265 1203 q 393 1168 368 1168 q 438 1200 426 1168 l 463 1188 z "},"ò":{"ha":481,"x_min":49,"x_max":432,"o":"m 432 215 q 374 44 432 108 q 244 -14 321 -12 q 110 42 165 -15 q 49 215 49 106 l 49 842 q 108 1013 49 950 q 240 1069 163 1069 q 371 1013 318 1069 q 432 842 432 949 l 432 842 l 432 215 m 308 151 l 308 907 q 288 974 308 949 q 240 1000 268 1000 q 192 974 213 1000 q 171 907 171 949 l 171 151 q 192 82 171 108 q 240 56 213 56 q 288 82 268 56 q 308 151 308 108 m 332 1111 l 297 1111 l 160 1307 l 231 1307 l 332 1111 z "},"ó":{"ha":481,"x_min":49,"x_max":432,"o":"m 432 215 q 374 44 432 108 q 244 -14 321 -12 q 110 42 165 -15 q 49 215 49 106 l 49 842 q 108 1013 49 950 q 240 1069 163 1069 q 371 1013 318 1069 q 432 842 432 949 l 432 842 l 432 215 m 308 151 l 308 907 q 288 974 308 949 q 240 1000 268 1000 q 192 974 213 1000 q 171 907 171 949 l 171 151 q 192 82 171 108 q 240 56 213 56 q 288 82 268 56 q 308 151 308 108 m 318 1307 l 179 1111 l 146 1111 l 246 1307 l 318 1307 z "},"ô":{"ha":481,"x_min":49,"x_max":432,"o":"m 432 215 q 374 44 432 108 q 244 -14 321 -12 q 110 42 165 -15 q 49 215 49 106 l 49 842 q 108 1013 49 950 q 240 1069 163 1069 q 371 1013 318 1069 q 432 842 432 949 l 432 842 l 432 215 m 308 151 l 308 907 q 288 974 308 949 q 240 1000 268 1000 q 192 974 213 1000 q 171 907 171 949 l 171 151 q 192 82 171 108 q 240 56 213 56 q 288 82 268 56 q 308 151 308 108 m 375 1111 l 339 1111 l 232 1221 l 125 1111 l 90 1111 l 232 1313 l 375 1111 z "},"õ":{"ha":481,"x_min":49,"x_max":432,"o":"m 432 215 q 374 44 432 108 q 244 -14 321 -12 q 110 42 165 -15 q 49 215 49 106 l 49 842 q 108 1013 49 950 q 240 1069 163 1069 q 371 1013 318 1069 q 432 842 432 949 l 432 842 l 432 215 m 308 151 l 308 907 q 288 974 308 949 q 240 1000 268 1000 q 192 974 213 1000 q 171 907 171 949 l 171 151 q 192 82 171 108 q 240 56 213 56 q 288 82 268 56 q 308 151 308 108 m 393 1188 q 304 1110 367 1110 q 224 1128 276 1110 q 146 1147 172 1147 q 103 1115 110 1147 l 76 1128 q 169 1203 103 1203 q 247 1185 196 1203 q 324 1168 299 1168 q 368 1200 357 1168 l 393 1188 z "},"ö":{"ha":481,"x_min":49,"x_max":432,"o":"m 432 215 q 374 44 432 108 q 244 -14 321 -12 q 110 42 165 -15 q 49 215 49 106 l 49 842 q 108 1013 49 950 q 240 1069 163 1069 q 371 1013 318 1069 q 432 842 432 949 l 432 842 l 432 215 m 308 151 l 308 907 q 288 974 308 949 q 240 1000 268 1000 q 192 974 213 1000 q 171 907 171 949 l 171 151 q 192 82 171 108 q 240 56 213 56 q 288 82 268 56 q 308 151 308 108 m 388 1167 q 371 1128 388 1144 q 331 1111 354 1111 q 292 1128 308 1111 q 275 1167 275 1144 q 292 1207 275 1190 q 331 1224 308 1224 q 371 1207 354 1224 q 388 1167 388 1190 m 203 1167 q 186 1128 203 1144 q 146 1111 169 1111 q 107 1128 124 1111 q 90 1167 90 1144 q 107 1207 90 1190 q 146 1224 124 1224 q 186 1207 169 1224 q 203 1167 203 1190 z "},"÷":{"ha":406,"x_min":49,"x_max":357,"o":"m 357 503 l 49 503 l 49 553 l 357 553 l 357 503 m 161 654 q 203 696 161 696 q 244 654 244 696 q 203 613 244 613 q 161 654 161 613 m 161 404 q 203 446 161 446 q 244 404 244 446 q 203 363 244 363 q 161 404 161 363 z "},"ø":{"ha":481,"x_min":49,"x_max":432,"o":"m 432 215 q 374 44 432 108 q 244 -14 321 -12 q 142 15 188 -15 l 135 -12 l 99 -12 l 111 40 q 49 215 49 104 l 49 842 q 108 1013 49 950 q 240 1069 163 1069 q 339 1040 294 1069 l 346 1068 l 382 1068 l 369 1015 q 432 842 432 951 l 432 842 l 432 215 m 308 911 q 287 976 307 951 q 240 1000 267 1000 q 192 974 213 1000 q 171 907 171 949 l 171 297 l 308 911 m 308 151 l 308 758 l 171 144 q 194 80 174 104 q 240 56 214 56 q 288 82 268 56 q 308 151 308 108 z "},"ù":{"ha":492,"x_min":21,"x_max":471,"o":"m 471 985 q 426 962 444 982 q 408 915 408 942 l 408 225 q 267 0 408 0 q 129 57 181 0 q 78 224 78 114 l 79 915 q 21 983 79 975 l 21 1056 l 251 1056 l 251 985 q 207 962 225 982 q 189 915 189 942 l 188 224 q 196 125 188 153 q 267 68 213 67 q 321 128 308 69 q 328 225 328 157 l 328 915 q 269 983 328 975 l 269 1056 l 471 1056 l 471 985 m 332 1111 l 297 1111 l 160 1307 l 231 1307 l 332 1111 z "},"ú":{"ha":492,"x_min":21,"x_max":471,"o":"m 471 985 q 426 962 444 982 q 408 915 408 942 l 408 225 q 267 0 408 0 q 129 57 181 0 q 78 224 78 114 l 79 915 q 21 983 79 975 l 21 1056 l 251 1056 l 251 985 q 207 962 225 982 q 189 915 189 942 l 188 224 q 196 125 188 153 q 267 68 213 67 q 321 128 308 69 q 328 225 328 157 l 328 915 q 269 983 328 975 l 269 1056 l 471 1056 l 471 985 m 346 1307 l 207 1111 l 174 1111 l 274 1307 l 346 1307 z "},"û":{"ha":492,"x_min":21,"x_max":471,"o":"m 471 985 q 426 962 444 982 q 408 915 408 942 l 408 225 q 267 0 408 0 q 129 57 181 0 q 78 224 78 114 l 79 915 q 21 983 79 975 l 21 1056 l 251 1056 l 251 985 q 207 962 225 982 q 189 915 189 942 l 188 224 q 196 125 188 153 q 267 68 213 67 q 321 128 308 69 q 328 225 328 157 l 328 915 q 269 983 328 975 l 269 1056 l 471 1056 l 471 985 m 389 1111 l 353 1111 l 246 1221 l 139 1111 l 104 1111 l 246 1313 l 389 1111 z "},"ü":{"ha":492,"x_min":21,"x_max":471,"o":"m 471 985 q 426 962 444 982 q 408 915 408 942 l 408 225 q 267 0 408 0 q 129 57 181 0 q 78 224 78 114 l 79 915 q 21 983 79 975 l 21 1056 l 251 1056 l 251 985 q 207 962 225 982 q 189 915 189 942 l 188 224 q 196 125 188 153 q 267 68 213 67 q 321 128 308 69 q 328 225 328 157 l 328 915 q 269 983 328 975 l 269 1056 l 471 1056 l 471 985 m 401 1167 q 385 1128 401 1144 q 344 1111 368 1111 q 306 1128 322 1111 q 289 1167 289 1144 q 306 1207 289 1190 q 344 1224 322 1224 q 385 1207 368 1224 q 401 1167 401 1190 m 217 1167 q 200 1128 217 1144 q 160 1111 183 1111 q 121 1128 138 1111 q 104 1167 104 1144 q 121 1207 104 1190 q 160 1224 138 1224 q 200 1207 183 1224 q 217 1167 217 1190 z "},"ý":{"ha":499,"x_min":21,"x_max":478,"o":"m 478 985 q 400 897 428 979 l 299 578 l 299 168 q 349 71 299 76 l 349 0 l 113 0 l 113 72 q 158 110 149 76 q 165 175 165 126 l 168 576 l 89 893 q 21 983 68 976 l 21 1056 l 263 1056 l 263 985 q 210 928 210 979 q 214 897 210 914 l 261 721 l 324 903 q 328 928 328 915 q 278 983 328 976 l 278 1056 l 478 1056 l 478 985 m 346 1307 l 207 1111 l 174 1111 l 274 1307 l 346 1307 z "},"þ":{"ha":515,"x_min":49,"x_max":494,"o":"m 494 533 q 451 338 494 417 q 288 243 397 236 q 215 267 249 246 l 215 139 q 233 93 215 113 q 278 71 251 74 l 278 0 l 49 0 l 49 72 q 107 139 107 81 l 107 917 q 49 983 107 975 l 49 1056 l 278 1056 l 278 985 q 233 963 251 982 q 215 917 215 943 l 215 790 q 285 813 238 813 q 494 533 492 818 m 381 533 q 286 743 382 740 q 238 722 258 743 q 217 674 217 701 l 217 432 q 219 375 217 386 q 283 329 232 328 q 381 533 378 332 z "},"ÿ":{"ha":499,"x_min":21,"x_max":478,"o":"m 478 985 q 400 897 428 979 l 299 578 l 299 168 q 349 71 299 76 l 349 0 l 113 0 l 113 72 q 158 110 149 76 q 165 175 165 126 l 168 576 l 89 893 q 21 983 68 976 l 21 1056 l 263 1056 l 263 985 q 210 928 210 979 q 214 897 210 914 l 261 721 l 324 903 q 328 928 328 915 q 278 983 328 976 l 278 1056 l 478 1056 l 478 985 m 401 1167 q 385 1128 401 1144 q 344 1111 368 1111 q 306 1128 322 1111 q 289 1167 289 1144 q 306 1207 289 1190 q 344 1224 322 1224 q 385 1207 368 1224 q 401 1167 401 1190 m 217 1167 q 200 1128 217 1144 q 160 1111 183 1111 q 121 1128 138 1111 q 104 1167 104 1144 q 121 1207 104 1190 q 160 1224 138 1224 q 200 1207 183 1224 q 217 1167 217 1190 z "},"Ł":{"ha":440,"x_min":49,"x_max":419,"o":"m 419 0 l 49 0 l 49 72 q 107 139 107 81 l 107 467 l 49 453 l 49 550 l 107 564 l 107 917 q 49 983 107 975 l 49 1056 l 278 1056 l 278 985 q 233 963 251 982 q 215 917 215 943 l 215 588 l 281 603 l 281 506 l 215 490 l 215 139 q 233 89 215 113 q 276 68 251 65 q 367 379 368 78 l 419 379 l 419 0 z "},"ł":{"ha":440,"x_min":49,"x_max":419,"o":"m 419 0 l 49 0 l 49 72 q 107 139 107 81 l 107 467 l 49 453 l 49 550 l 107 564 l 107 917 q 49 983 107 975 l 49 1056 l 278 1056 l 278 985 q 233 963 251 982 q 215 917 215 943 l 215 588 l 281 603 l 281 506 l 215 490 l 215 139 q 233 89 215 113 q 276 68 251 65 q 367 379 368 78 l 419 379 l 419 0 z "},"Œ":{"ha":690,"x_min":49,"x_max":642,"o":"m 313 1 q 244 -14 278 -14 q 99 56 151 -14 q 49 215 49 119 l 49 842 q 97 999 49 935 q 240 1069 150 1069 q 313 1054 278 1069 l 313 1056 l 642 1056 l 642 676 l 589 676 l 590 757 q 506 985 594 985 q 458 964 478 985 q 438 917 438 943 l 438 583 l 463 583 q 486 617 483 583 q 483 665 486 622 l 549 665 l 549 404 l 490 404 q 488 465 490 461 q 438 485 481 485 l 438 139 q 457 93 438 115 q 500 71 476 71 q 589 379 592 71 l 642 379 l 642 0 l 313 0 l 313 1 m 308 151 l 308 907 q 292 968 308 942 q 240 1000 272 1000 q 188 968 207 1000 q 171 907 171 942 l 171 151 q 188 89 171 117 q 240 56 207 56 q 293 89 274 56 q 308 151 308 117 z "},"œ":{"ha":690,"x_min":49,"x_max":642,"o":"m 313 1 q 244 -14 278 -14 q 99 56 151 -14 q 49 215 49 119 l 49 842 q 97 999 49 935 q 240 1069 150 1069 q 313 1054 278 1069 l 313 1056 l 642 1056 l 642 676 l 589 676 l 590 757 q 506 985 594 985 q 458 964 478 985 q 438 917 438 943 l 438 583 l 463 583 q 486 617 483 583 q 483 665 486 622 l 549 665 l 549 404 l 490 404 q 488 465 490 461 q 438 485 481 485 l 438 139 q 457 93 438 115 q 500 71 476 71 q 589 379 592 71 l 642 379 l 642 0 l 313 0 l 313 1 m 308 151 l 308 907 q 292 968 308 942 q 240 1000 272 1000 q 188 968 207 1000 q 171 907 171 942 l 171 151 q 188 89 171 117 q 240 56 207 56 q 293 89 274 56 q 308 151 308 117 z "},"Š":{"ha":474,"x_min":50,"x_max":426,"o":"m 397 685 l 329 685 l 329 835 q 239 989 329 971 q 169 917 189 985 q 158 806 154 867 q 264 579 165 713 q 375 407 342 474 q 426 217 426 306 q 394 78 426 146 q 272 -15 357 -3 q 188 -4 226 -21 q 163 4 171 4 q 143 -14 147 4 l 78 -14 l 78 369 l 140 369 l 140 226 q 238 51 140 54 q 318 157 307 50 q 161 532 332 300 q 50 801 56 674 q 92 968 46 890 q 233 1060 146 1058 q 265 1049 246 1061 q 296 1038 285 1038 q 331 1053 313 1038 q 361 1068 349 1068 q 397 1018 397 1068 l 397 685 m 90 1313 l 125 1313 l 233 1203 l 339 1313 l 375 1313 l 233 1111 l 90 1313 z "},"š":{"ha":478,"x_min":53,"x_max":429,"o":"m 400 685 l 332 685 l 332 835 q 242 989 332 971 q 172 917 192 985 q 161 806 157 867 q 267 579 168 713 q 378 407 344 474 q 429 217 429 306 q 397 78 429 146 q 275 -15 360 -3 q 190 -4 229 -21 q 165 4 174 4 q 146 -14 150 4 l 81 -14 l 81 369 l 143 369 l 143 226 q 240 51 143 54 q 321 157 310 50 q 164 532 335 300 q 53 801 58 674 q 94 968 49 890 q 236 1060 149 1058 q 268 1049 249 1061 q 299 1038 288 1038 q 333 1053 315 1038 q 364 1068 351 1068 q 400 1018 400 1068 l 400 685 m 94 1313 l 129 1313 l 238 1203 l 343 1313 l 379 1313 l 238 1111 l 94 1313 z "},"Ÿ":{"ha":499,"x_min":21,"x_max":478,"o":"m 478 985 q 400 897 428 979 l 299 578 l 299 168 q 349 71 299 76 l 349 0 l 113 0 l 113 72 q 158 110 149 76 q 165 175 165 126 l 168 576 l 89 893 q 21 983 68 976 l 21 1056 l 263 1056 l 263 985 q 210 928 210 979 q 214 897 210 914 l 261 721 l 324 903 q 328 928 328 915 q 278 983 328 976 l 278 1056 l 478 1056 l 478 985 m 401 1167 q 385 1128 401 1144 q 344 1111 368 1111 q 306 1128 322 1111 q 289 1167 289 1144 q 306 1207 289 1190 q 344 1224 322 1224 q 385 1207 368 1224 q 401 1167 401 1190 m 217 1167 q 200 1128 217 1144 q 160 1111 183 1111 q 121 1128 138 1111 q 104 1167 104 1144 q 121 1207 104 1190 q 160 1224 138 1224 q 200 1207 183 1224 q 217 1167 217 1190 z "},"Ž":{"ha":532,"x_min":49,"x_max":483,"o":"m 483 1056 l 222 174 q 215 135 215 154 q 260 82 215 82 q 385 197 344 82 q 414 379 413 276 l 471 379 l 471 0 l 49 0 l 314 894 q 317 919 317 907 q 268 975 317 975 q 246 971 258 975 q 144 856 178 950 q 118 676 118 779 l 61 676 l 61 1056 l 483 1056 m 132 1313 l 167 1313 l 275 1203 l 381 1313 l 417 1313 l 275 1111 l 132 1313 z "},"ž":{"ha":532,"x_min":49,"x_max":483,"o":"m 483 1056 l 222 174 q 215 135 215 154 q 260 82 215 82 q 385 197 344 82 q 414 379 413 276 l 471 379 l 471 0 l 49 0 l 314 894 q 317 919 317 907 q 268 975 317 975 q 246 971 258 975 q 144 856 178 950 q 118 676 118 779 l 61 676 l 61 1056 l 483 1056 m 132 1313 l 167 1313 l 275 1203 l 381 1313 l 417 1313 l 275 1111 l 132 1313 z "},"ˆ":{"ha":382,"x_min":49,"x_max":333,"o":"m 333 1111 l 297 1111 l 190 1221 l 83 1111 l 49 1111 l 190 1313 l 333 1111 z "},"ˇ":{"ha":382,"x_min":49,"x_max":333,"o":"m 49 1313 l 83 1313 l 192 1203 l 297 1313 l 333 1313 l 192 1111 l 49 1313 z "},"˙":{"ha":210,"x_min":49,"x_max":161,"o":"m 161 1167 q 144 1128 161 1144 q 104 1111 128 1111 q 65 1128 82 1111 q 49 1167 49 1144 q 65 1207 49 1190 q 104 1224 82 1224 q 144 1207 128 1224 q 161 1167 161 1190 z "},"˚":{"ha":267,"x_min":49,"x_max":218,"o":"m 218 1135 q 193 1075 218 1100 q 133 1050 168 1050 q 74 1075 99 1050 q 49 1135 49 1100 q 74 1194 49 1169 q 133 1219 99 1219 q 193 1194 168 1219 q 218 1135 218 1169 m 185 1135 q 169 1171 185 1156 q 133 1186 154 1186 q 97 1171 113 1186 q 82 1135 82 1156 q 97 1099 82 1114 q 133 1083 113 1083 q 169 1099 154 1083 q 185 1135 185 1114 z "},"˜":{"ha":414,"x_min":49,"x_max":365,"o":"m 365 1188 q 276 1110 339 1110 q 197 1128 249 1110 q 118 1147 144 1147 q 75 1115 82 1147 l 49 1128 q 142 1203 75 1203 q 219 1185 168 1203 q 296 1168 271 1168 q 340 1200 329 1168 l 365 1188 z "},"–":{"ha":517,"x_min":21,"x_max":496,"o":"m 496 475 l 21 475 l 21 581 l 496 581 l 496 475 z "},"—":{"ha":586,"x_min":21,"x_max":565,"o":"m 565 475 l 21 475 l 21 581 l 565 581 l 565 475 z "},"‘":{"ha":239,"x_min":49,"x_max":190,"o":"m 190 867 q 169 800 190 828 q 119 772 149 772 q 69 800 90 772 q 49 867 49 828 q 78 978 49 926 q 158 1056 107 1031 q 118 963 121 1014 q 119 963 118 963 q 169 935 149 963 q 190 867 190 907 z "},"’":{"ha":239,"x_min":49,"x_max":190,"o":"m 190 960 q 162 849 190 901 q 81 772 133 796 q 122 865 118 813 q 119 865 121 865 q 69 893 90 865 q 49 960 49 921 q 69 1028 49 1000 q 119 1056 90 1056 q 169 1028 149 1056 q 190 960 190 1000 z "},"‚":{"ha":239,"x_min":49,"x_max":190,"o":"m 190 96 q 163 -14 190 36 q 81 -93 133 -68 q 122 0 118 -51 q 119 0 121 0 q 69 28 90 0 q 49 96 49 56 q 69 163 49 135 q 119 190 90 190 q 169 163 149 190 q 190 96 190 135 z "},"‛":{"ha":239,"x_min":49,"x_max":190,"o":"m 190 960 q 169 893 190 921 q 119 865 149 865 q 118 865 118 865 q 158 772 121 813 q 78 849 107 796 q 49 960 49 901 q 69 1028 49 1000 q 119 1056 90 1056 q 169 1028 149 1056 q 190 960 190 1000 z "},"“":{"ha":406,"x_min":49,"x_max":357,"o":"m 357 867 q 336 800 357 828 q 286 772 315 772 q 236 800 257 772 q 215 867 215 828 q 244 978 215 926 q 325 1056 274 1031 q 285 963 288 1014 q 286 963 285 963 q 336 935 315 963 q 357 867 357 907 m 190 867 q 169 800 190 828 q 119 772 149 772 q 69 800 90 772 q 49 867 49 828 q 78 978 49 926 q 158 1056 107 1031 q 118 963 121 1014 q 119 963 118 963 q 169 935 149 963 q 190 867 190 907 z "},"”":{"ha":406,"x_min":49,"x_max":357,"o":"m 190 960 q 162 849 190 901 q 81 772 133 796 q 122 865 118 813 q 119 865 121 865 q 69 893 90 865 q 49 960 49 921 q 69 1028 49 1000 q 119 1056 90 1056 q 169 1028 149 1056 q 190 960 190 1000 m 357 960 q 328 849 357 901 q 247 772 300 796 q 289 865 285 813 q 286 865 288 865 q 236 893 257 865 q 215 960 215 921 q 236 1028 215 1000 q 286 1056 257 1056 q 336 1028 315 1056 q 357 960 357 1000 z "},"„":{"ha":406,"x_min":49,"x_max":357,"o":"m 190 96 q 163 -14 190 36 q 81 -93 133 -68 q 122 0 118 -51 q 119 0 121 0 q 69 28 90 0 q 49 96 49 56 q 69 163 49 135 q 119 190 90 190 q 169 163 149 190 q 190 96 190 135 m 357 96 q 329 -14 357 36 q 247 -93 300 -68 q 289 0 285 -51 q 286 0 288 0 q 236 28 257 0 q 215 96 215 56 q 236 163 215 135 q 286 190 257 190 q 336 163 315 190 q 357 96 357 135 z "},"•":{"ha":438,"x_min":49,"x_max":389,"o":"m 49 526 q 99 646 49 596 q 219 696 149 696 q 339 646 289 696 q 389 526 389 596 q 339 406 389 456 q 219 356 289 356 q 99 406 149 356 q 49 526 49 456 z "},"…":{"ha":1072,"x_min":49,"x_max":1024,"o":"m 190 96 q 169 28 190 56 q 119 0 149 0 q 69 28 90 0 q 49 96 49 56 q 69 163 49 135 q 119 190 90 190 q 169 163 149 190 q 190 96 190 135 m 1024 96 q 1003 28 1024 56 q 953 0 982 0 q 903 28 924 0 q 882 96 882 56 q 903 163 882 135 q 953 190 924 190 q 1003 163 982 190 q 1024 96 1024 135 m 607 96 q 586 28 607 56 q 536 0 565 0 q 486 28 507 0 q 465 96 465 56 q 486 163 465 135 q 536 190 507 190 q 586 163 565 190 q 607 96 607 135 z "},"‰":{"ha":965,"x_min":49,"x_max":917,"o":"m 261 596 q 231 503 261 536 q 157 468 200 469 q 83 499 114 467 q 49 596 49 535 l 49 929 q 82 1024 49 989 q 156 1056 111 1056 q 230 1022 199 1056 q 261 929 261 989 l 261 929 l 261 596 m 529 1056 l 204 0 l 168 0 l 494 1056 l 529 1056 m 653 128 q 622 35 653 68 q 549 0 592 1 q 475 31 506 -1 q 440 128 440 67 l 440 461 q 474 556 440 521 q 547 588 503 588 q 622 554 590 588 q 653 461 653 521 l 653 461 l 653 128 m 193 560 l 193 965 q 156 1017 193 1017 q 117 965 117 1017 l 117 560 q 156 507 117 507 q 193 560 193 507 m 585 92 l 585 497 q 547 549 585 549 q 508 497 508 549 l 508 92 q 547 39 508 39 q 585 92 585 39 m 917 128 q 886 35 917 68 q 813 0 856 1 q 739 31 769 -1 q 704 128 704 67 l 704 461 q 738 556 704 521 q 811 588 767 588 q 885 554 854 588 q 917 461 917 521 l 917 461 l 917 128 m 849 92 l 849 497 q 811 549 849 549 q 772 497 772 549 l 772 92 q 811 39 772 39 q 849 92 849 39 z "},"€":{"ha":524,"x_min":21,"x_max":475,"o":"m 475 842 l 401 842 l 399 876 q 369 957 396 928 q 307 988 343 986 q 250 964 272 988 q 224 893 224 939 l 224 621 l 435 621 l 414 572 l 224 572 l 224 508 l 386 508 l 367 460 l 224 460 l 224 178 q 311 85 224 82 q 372 110 344 85 q 399 172 399 135 l 399 253 l 474 253 l 475 169 q 423 47 475 93 q 300 0 371 1 q 153 68 208 -1 q 101 229 101 133 l 101 460 l 21 461 l 42 510 l 101 508 l 101 572 l 21 572 l 42 621 l 101 621 l 101 828 q 151 985 101 919 q 293 1056 206 1057 q 381 1031 338 1054 q 406 1040 403 1018 l 475 1040 l 475 842 z "},"№":{"ha":1008,"x_min":49,"x_max":960,"o":"m 960 456 q 901 285 960 349 q 774 226 850 228 q 639 282 694 225 q 578 456 578 346 l 578 828 q 638 999 578 936 q 768 1056 690 1056 q 900 999 846 1056 q 960 828 960 935 l 960 828 l 960 456 m 951 108 l 586 108 l 586 175 l 951 175 l 951 108 m 557 982 q 513 960 531 981 q 494 914 494 940 l 494 0 l 375 0 l 186 813 l 186 139 q 204 93 186 113 q 249 71 222 74 l 249 0 l 49 0 l 49 71 q 107 139 107 81 l 107 914 q 49 982 107 972 l 49 1053 l 249 1053 l 415 438 l 415 914 q 358 982 415 972 l 358 1053 l 557 1053 l 557 982 m 838 392 l 838 893 q 817 960 838 935 q 768 986 796 986 q 720 960 740 986 q 700 893 700 935 l 700 392 q 720 322 700 349 q 768 296 740 296 q 817 322 796 296 q 838 392 838 349 z "},"™":{"ha":538,"x_min":49,"x_max":489,"o":"m 489 639 l 399 639 l 399 667 q 422 694 422 671 l 422 932 l 379 639 l 353 639 l 313 932 l 313 694 q 336 667 313 669 l 336 639 l 263 639 l 263 667 q 286 694 286 671 l 286 1000 q 263 1028 286 1024 l 263 1056 l 338 1056 l 374 806 l 407 1056 l 485 1056 l 485 1028 q 465 1000 465 1025 l 465 694 q 489 667 465 669 l 489 639 m 225 906 l 200 906 l 199 1000 q 179 1024 199 1022 q 158 1000 158 1024 l 158 694 q 183 667 158 669 l 183 639 l 92 639 l 92 667 q 115 694 115 669 l 115 1000 q 96 1024 115 1024 q 76 1003 76 1025 l 75 906 l 49 906 l 49 1056 l 225 1056 l 225 906 z "}}}
